<svg width="1820" height="110" fill="none" xmlns="http://www.w3.org/2000/svg"><path d="M601.942 1.025l.977-.181-.391-.545c4.498-.725 17.794-.181 18.772 2.178-5.671.363-14.274-.363-19.358-1.452zM177.62 11.551c5.084-1.633 13.297-4.174 20.532-3.448-1.76 1.996-6.453 2.54-11.537 2.722-1.564 1.089-8.017 3.267-8.995.726zm192.216 7.44c-5.475-1.27-1.173-4.173-.587-6.533 1.565-.726 3.324-1.451 6.062-1.633 2.933 3.085-1.173 7.078-5.475 8.166zm288.226-6.714c-1.369 0-2.347 0-2.347-.545.978 0 2.933-.362 2.347.545zm-473.207 2.359c.782 0 .782-.363 1.76-.363 2.346.908 2.542 3.448-.587 3.992l-.977-.181-.978.181c.391-1.088-.391-2.903.782-3.629zm425.495 3.448c-1.369 0-2.347 0-2.347-.544.587-.545 2.542-.363 2.347.544zm104.809 0h1.173v.545h-1.173v-.545zm-77.629 2.722c-2.933-.181-4.107-1.27-5.475-2.177 3.324-.726 7.43.363 5.475 2.177zm-19.945-1.815c-1.564 0-2.933 0-2.933-.544.978.181 3.52-.544 2.933.544zm-22.292.001c.782-.545 3.129-.182 4.302-.545.978 1.27-4.302 1.815-4.302.545zm-495.498-.545c.782.182 3.129-.363 2.933.363-.782-.181-2.933.181-2.933-.363zm553.378 3.63c-.195-1.089 1.76-.908 2.347-1.634-1.369-1.27-4.889.726-7.235-.362.586-1.815 5.866-1.634 8.994-1.27.392 1.814 4.107 1.814 4.889 3.447-3.324.908-5.866.182-8.995-.181zM36.05 19.355h1.172v.544H36.05v-.544zm248.335.544c1.369.907 5.28.544 4.888 2.54-3.128 1.27-8.408-1.451-4.888-2.54zm-88.775.363c.782 1.089-2.933.181-1.76-.363.587-.181 1.76.181 1.76.363zm218.222 1.815c1.956-.182 2.738.181 2.347 1.27-1.369-.181-2.738-.181-2.347-1.27zm250.096.725c.782-.181 1.564-.362 2.933-.362.782 1.088-2.738 1.27-2.933.362zm-481.419 2.723c0-.726-.196-1.452 1.173-1.634.195.363.978.545 1.173.908-1.564-.182-1.173.726-2.346.726zm286.27.907c-4.302.181-9.386.907-12.124-.363 5.28-1.089 17.012-2.178 19.945-.363-1.564 1.27-5.084.544-7.821.726zm373.09 1.271c0-.908 1.369-1.09 2.347-1.634.391 1.27-1.565 1.09-2.347 1.634zM592.947 29.88c-.196-1.089-2.738-.907-4.889-.907-1.369-.908-.782-1.09-.587-2.541 3.52 0 3.911 1.633 7.235 1.633-.391.726-1.173 1.27-1.759 1.815zm-278.449-.907c-.587-.726 1.955-1.452 2.346-.545-.977 0-.586.908-2.346.545zm10.755-.363c-.978.181-1.565.544-2.347.544-.586-.726 1.956-1.27 2.347-.544zM79.068 30.243l-.782-.363v-1.27c6.844-.182 14.47-.182 21.118 0 1.565 0 5.084-.363 5.475.907-8.603 1.089-17.012 0-26.006 1.27l.195-.544zm-11.146 2.359c0-1.089 5.866-1.633 8.408-2.178v.545h1.174c-.978 2.178-9.777 3.992-9.582 1.633zm287.444-3.629c1.369.181 1.369-.545 2.933-.363a.99.99 0 00.587.907c-.783.544-3.911.544-3.52-.544zm-10.168.907l.977-.363-.391-.544c1.76-.182 1.76.544 3.52.363.196 1.27-2.933 1.27-4.106.544zm5.475 12.885c-.782.181-3.129-.363-2.933.363.195.363.782.544.586 1.27 3.129-.181 5.476 0 6.649.908-3.52.544-4.302 2.359-6.062 3.63-6.062 1.814-9.581-1.09-14.47-1.271-5.866-.182-8.213 1.27-13.297 1.27-4.693-.181-7.039.182-10.168-.363-5.866 4.174-17.794 1.452-28.353 1.815-1.955-2.904-4.888-5.081-12.71-4.9 0-1.452 1.76-1.996 1.173-3.63-3.324-.907-4.302.545-8.995.364-1.173-.726-2.542-1.452-4.888-1.634l.391-.544-.978-.182c0-.363-.391-.363-.586-.544l.391-.544-.978-.182c0-.544 1.955-.181 2.347-.544 1.955.907 8.017 2.722 10.754 1.27 0-2.36-4.693-2.178-5.475-3.992 1.955-.726 3.911.362 6.648 0 .196-.182.587-.364 1.174-.364.391-1.996 2.346-3.992 7.821-4.9 1.76-.362 4.302 0 6.649-.362.977-.182 1.368-.726 1.76-.908 4.888-1.088 8.799.726 10.754 1.634 1.173-.545 2.151-1.09 4.302-1.27 1.564.725 4.302.725 7.235.544 2.738.726 3.715 2.359 7.822 2.54 3.128 3.811 8.603 6.352 18.771 6.534 1.565.362 1.956 1.27 2.934 1.814 3.715.545 9.776 0 12.123 1.27 4.302.182 8.604.364 10.755 1.634-4.107.726-7.04.544-11.146-.726zm-103.05-1.452c.196-1.089-1.76-.907-2.346-1.633.978-1.089 6.257-1.452 7.821-.363l-.391.363-.391.363c-1.173.726-2.737 1.089-4.693 1.27zM612.696 31.15c-2.542.908-4.693-.544-4.888-1.814 2.346-.908 4.888.363 4.888 1.815zM336.79 28.973h1.173v.544h-1.173v-.544zm113.217.544c3.911-.363 1.369.907 0 0zm-111.458 2.178c-1.368 1.089-6.257.363-7.235-.544 1.565-.363 7.627-1.452 7.822.362l.978.182c-.587 0-1.174-.182-1.76-.363l.195.363zm-168.75-1.271c1.173.182 3.715-.363 2.933.545-1.369.181-2.347 0-2.933-.545zm-12.124.364c1.369-.182 2.347-.545 4.302-.363.196 1.451-3.52.907-4.302.363zm502.733 0c3.911-.364 1.369.907 0 0zm-303.282 2.177c-1.956 0-4.498.181-5.475-.363l.391-.544.391-.545c.586-.544 1.173-1.089 2.933-.907.586.907 1.76 1.452 1.76 2.36zM147.507 31.15c2.151.182 4.693-.907 5.475.363-1.76.363-4.106.182-5.475-.363zm210.401 1.09c1.368 0 2.346 0 2.346.544-1.369.181-2.346 0-2.346-.545zm13.101 1.633c-.586 0-.977.363-1.173.544-1.76-.907-7.039-.181-7.235-1.815 3.324.182 8.213-.544 8.408 1.27zm91.708.907c-2.346 0-4.302 0-5.475-.544l.391-.545-.391-.544c2.151-.726 6.649-.363 5.475 1.633zm362.727 4.355c-1.174.908-1.174 1.997-2.934 2.178 1.369 0 2.347 0 2.347.544l-.978.182.391.544c-3.519-.181-5.475.363-8.408.363-.977-1.088 2.738-2.177 1.76-3.448 7.039-.907 8.408-4.537 13.883-6.17 2.347 1.815-3.324 3.993-6.061 5.807zm-162.69-4.718c-.977.544-4.106.544-3.715-.544 1.76 0 3.715-.182 3.715.544zm-425.494.726c-1.173-1.815 5.67-1.633 6.062-.544-.978.544-4.889.726-6.062.544zm279.035.544h-2.346c1.173-.726-1.174-1.452 1.173-1.633-.587 1.089.978 1.089 1.173 1.633zm-162.689-1.27c.391 1.27-2.933 1.27-2.346 0 1.564 0 1.173-.544 2.346 0zm548.098 3.267l-.978-.182c.782-1.089 3.52-1.089 6.062-1.633 3.911-.726 8.604-1.633 13.297-.907-2.151 3.084-12.124 2.177-18.772 3.084l.391-.362zm-41.845-2.904c1.368 0 2.346 0 2.346.544-1.369.182-2.151 0-2.346-.544zm-325.965.544c-.978 0-2.933.363-2.347-.544 1.173 0 2.151 0 2.347.544z" fill="#fff"/><path d="M826.813 40.587c-.392-1.089 1.173-1.27 2.933-1.27 0 .907-.783 1.633-2.933 1.27zm-664.836-.907c.587 1.27-1.369 1.27-3.52 1.27-.586-1.27 2.151-1.815 3.52-1.27zm679.305.907c.196-.726 2.933-.181 4.302-.363.782 1.27-4.693 1.634-4.302.363zm-602.849 1.996c-2.738.182-1.955-1.633 0-1.633 1.173.544.196.726 0 1.633zm566.088-.363c-.196-.725.782-1.088 2.346-.907.587.907-.782.907-2.346.907zm-376.219 0h-1.76v-.907h1.174c0 .363.782.363.586.907zm402.617-.363c1.368 0 2.346 0 2.346.545-.782.544-2.542.363-2.346-.545zm-588.184.363c.782.364.782 1.09-.587 1.27 0-.544-.195-1.27.587-1.27zm-10.364 1.27v-.907h1.174c0 .363.782.363.586.908h-1.76zm323.227-.725c.196.907-.782 1.27-1.759 1.633-.196-.544-1.369-.363-2.347-.363-.195-1.451 2.542-.181 4.106-1.27zm-6.061 0a.99.99 0 00.586.907h-1.759c-.196-.544.391-.725 1.173-.907zm282.555.907c-.978-.181-2.542-.181-2.933-.544 1.564 0 2.933 0 2.933.544zm-39.108.726c-1.564 0-2.933 0-2.933-.544 1.369-.363 2.737-.545 2.933.544zm-550.249.545c-1.173 1.633-8.408 1.089-8.408-.545 2.933-.726 6.452-.544 8.408.545zm257.917.726c0-.726.978-.908 1.173-1.634 2.347-.181 3.716.182 4.302.908-2.151.181-2.933.907-5.475.726zm-75.87-.908c-.977 0-1.564-.181-1.759-.544.977-.182 1.368 0 1.759.544zm119.28-.363h1.173v.545h-1.173v-.545zm-136.291 0c1.173.182 4.106-.544 3.519.545-.391.726-4.302.544-3.519-.545zm-142.744 8.348c-2.933-.544-2.933.363-5.475.363-3.716-1.27-6.258-3.267-10.755-3.992-.391-2.178 2.542-2.541 3.715-3.993 5.671-1.089 9.191-.181 12.71 1.27h3.715c.196.545 1.369.726 1.174 1.634.195.907-2.151.363-2.347.907 1.173 1.996-1.955 1.996-2.737 3.811zm230.736-7.803h1.174v.544h-1.174v-.544zm-78.802.363c.782-.182 1.564-.363 2.933-.363.978.907-3.129.907-2.933.363zm106.569.544c1.565-1.452 6.844 0 7.235 1.27-3.52.182-6.061.363-7.235-1.27zm-9.581.363v-.544h1.76v.544h-1.76zm-83.105-.363c0 .363.782.363.587.907h-1.174c-.782-.363-.782-.725.587-.907zm103.05 1.996c.195-.726.586-1.27 1.76-1.633.195.726 2.933.181 2.346 1.27-.391.545-3.129.726-4.106.363zm-95.815-.726c-.978.726-4.106.726-4.302-.544 1.369-.726 3.911-.182 4.302.544zm64.919-.544c1.565.181 3.324.363 4.302.907-1.76-.181-5.084.545-4.302-.907zm-54.164 0c1.76 1.452-2.738 1.996-4.302.907l.978-.363-.391-.544h3.715zm53.578 3.085v-1.27c1.369-.182 2.346 0 2.933.363.391.907-1.173.907-2.933.907zm-231.324-.726c2.347 0 4.107.181 4.889.907-2.542.182-4.498 0-4.889-.907zm149.979.907h-2.346v-.544h2.346v.544zm-184.98.726v-1.27h1.76c.195.726-.196 1.27-1.76 1.27zm112.631.908c-1.174 0-1.956-.182-2.347-.545 1.369-.181 2.347 0 2.347.545zm81.344.363c1.564-.182 2.738-.545 3.715.363-.977-.363-3.519.181-3.715-.363zm271.409 0a.99.99 0 00.587.907c-1.369-.181-1.369.544-2.933.363-.391-1.089.391-1.452 2.346-1.27zm-249.704.544c.196.544-.586.726-.586 1.27h-3.52c-1.173-1.633 2.542-1.996 4.106-1.27zm59.835.545c.782 1.089-2.933.181-1.76-.363.392-.182 1.565.363 1.76.363zm-192.411-.182c1.76 0 2.151.726 2.933 1.27-1.564.726-3.324-.181-2.933-1.27zm-9.581 2.178c-.196-1.27.586-1.996 2.933-1.815.587.545 1.173 1.27 1.76 1.815l-.391.363.391.363c-1.174-.545-3.52-.363-4.693-.726zm-8.995-1.271h-1.173v-.544h1.173v.544zm158.973 1.815c-.977 0-1.564-.181-1.759-.544.977 0 2.15-.182 1.759.544zm47.712 1.633c-.782.182-1.173.363-2.346.363-.978-.544-.587-1.633.586-1.814-.586.907 2.347.181 1.76 1.451zM305.308 58.19c.977.908-3.129.726-2.934.363 1.369.182 1.369-.544 2.934-.363zm-1.174 3.085h-1.759v-.544h1.759v.544zm150.762 2.541c2.346-1.089 1.369 1.09 0 0zm11.341 3.811c.978 0 .391-.726 1.76-.544.587.544-1.369 1.27-1.76.544zm-140.984 1.452c-.978 0-1.565-.181-1.76-.544.978 0 2.151-.182 1.76.544zm139.811.544v-.907c1.368 0 2.346 0 2.346.544-.782.182-.978.545-2.346.363zM336.789 71.62c-1.173 0-.782.907-2.346.544-.196-.907 1.955-1.633 2.346-.544zM105.857 18.447c.782 0 2.346 0 1.173.363-1.564.363-1.955-1.27-1.173-.363zm381.107 45.006c.393.182-.392.182 0 0z" fill="#fff"/><path d="M-60.547 91.4V79.423c3.715 0 7.821 0 12.123.907-.587-.362-.782-.907-.587-1.633 1.37-.181 2.347-.544 4.302-.363.783 1.452 2.347 1.633.587 3.085.978.363 4.302 1.27 4.889 0h-1.76c-.392-1.27 2.542-1.451 1.173-2.177-2.542-1.27 4.302-2.36 4.302-4.356-2.151-1.27-6.844-1.27-8.408-2.722l.977-.363-.39-.544c4.692.363 9.972 1.996 14.47.544 4.105.907 7.43 2.178 13.296 2.178-.587-.908.978-.908 1.173-1.633 2.151.362 6.648.181 7.235-1.27-1.76 0-4.106.18-4.302-.545l.978-.363-.391-.545c.978-.726 5.28.182 6.061-.544-.782-1.089-1.955-1.815-3.52-2.54-4.692.362-6.452-1.816-10.754-2.541-.391-1.634-1.173-3.085-5.475-2.722 0-.726 0-1.452.587-1.815 2.737.544 3.715.181 6.061.544-1.564-2.36-10.168-1.452-12.71 0-2.15-.181-6.453.544-6.061-.907 1.564 0 2.933-.182 3.715-.545-1.956-.726-2.933-1.996-6.062-2.177 0 .726 0 1.451-.587 1.814h-3.52c.392 1.634-3.519 1.27-2.932 2.178-.587-.907-2.738-1.089-4.302-1.633.586-1.09 3.52-1.09 1.76-2.54 2.737-.908 6.061-1.816 10.168-1.271 2.346-.908 3.128-1.815 7.235-1.27l-.391.544.977-.182c2.151.908 4.302-.362 7.235-.907 2.738-.544 4.107.363 3.52-1.27l.978-.363-.391-.545c2.737 0 6.061.182 6.648-.907l.978-.182-.391-.544c8.408 0 16.23-2.904 23.464-1.633l-.977.363 3.52.181c2.541 0 4.888-.181 7.234.363l-.39-.544c1.76-.182 3.519-.545 3.715-1.634-2.347-.363-3.716-.363-6.062 0 .586-.907-1.956-.362-1.76-1.27l.978-.181c-.587 0-.978 0-1.565-.182-.39-.181-.586-.544-.782-.907l-.39.544c-2.347-.544-2.347-2.36-4.89-2.722-2.737 0-6.648 1.089-7.821.907 2.738-1.814-4.106-3.266-7.822-3.63-.195-.725 0-1.27.587-1.632-.978-.363-2.542-.363-2.933-.908l.391-.544-.978-.182c11.733-.726 24.052-1.996 33.242.908 2.347-.908 4.497-.545 6.648-.363-.195-.908 1.37-.908 1.174-1.815-2.933-1.815-9.386-.181-13.297-1.815l.978-.363-.391-.544c7.821 0 13.883 0 22.291-.363.587-.363.587-1.089 1.173-1.633-2.737-1.27-5.28-2.541-6.061-4.9l.977-.182.391-.544c2.934.544 5.28 3.085 8.995 2.177-1.368-1.451-5.084-1.814-5.475-3.629 4.302.907 9.973.907 12.124 2.722.586-.544 1.955-.363 2.933-.544 0 1.089 1.76 1.27 1.173 2.54l-.978.182.391.544c-1.955.363-.782-1.089-2.346-.907-2.151.544-4.107.726-6.648.363 1.955 1.996 4.888 3.266 10.168 3.448.977 1.633-1.565 1.633-1.174 3.085 1.956.181 3.911.181 4.302 1.27-2.933 1.27-8.017-1.27-12.123.363-1.174-.363-2.347-.544-3.715-.907-.783.544-3.13.181-2.934 1.27.391 1.09 2.151 1.452 3.52 2.178 9.19-.363 14.861 2.178 21.705.907-.196-.726 0-1.27.587-1.633 5.084.363 7.821 1.996 12.71 2.54.586-1.088 2.15-1.451 3.715-2.177 1.369.181 2.346.544 4.302.363.782 1.996 3.91 2.722 8.995 2.54a.99.99 0 01.586-.907c7.235-.181 8.213 2.904 14.47 3.448 0 .726.391 1.27 1.174 1.634 4.497 0 13.687-1.452 17.989.544 7.626-1.27 20.727.544 28.353-.544 1.956-.363 4.498 0 7.822-.363-.196-.908 1.564-.908 1.76-1.634-1.369-.544-1.369-1.814-1.173-3.085 1.955 0 5.084 1.09 6.648.363-.782-1.996-4.889-1.27-7.822-1.27-3.91 0-7.821-1.452-10.168-.907.391-1.09 2.542-1.09 1.174-2.178 1.368 0 2.346 0 2.346-.545-.587-.726-2.151-.907-1.76-2.177 7.626-1.997 15.448 1.451 22.878 1.814 1.174 0 .783-.544 2.347-.544 1.369 0 2.542.726 2.933.544 1.369-.181 1.955-1.451 3.715-.907 1.564 1.27 8.799 1.27 11.537 0-1.76-2.178-9.386.544-10.755-1.633-4.302 1.452-7.039-.726-10.168-1.634l.391-.544.391-.544c9.191-3.449 17.208 2.903 24.052 1.633-.978-.726-3.129-1.089-6.062-.908-2.151-1.814-3.324-4.355-7.822-4.9v-1.633c5.084 1.27 8.604 2.541 15.644 2.178 1.955.363.977 2.36 3.519 2.54.587 0 .978-.362 1.174-.544.195-1.452-2.542-1.452-1.76-3.085 6.061.363 12.319 3.448 15.643 6.17-3.52-.363-5.084.545-5.475 1.815 1.173.182 2.542.182 2.346.907-.586.545-1.173 1.09-2.933.908-3.128-2.54-10.363 0-15.056-.544.391 2.903 12.71 1.088 12.71 3.085 3.324 0 11.341-.182 15.643.907l-.391.544.391.545c-.391.544-3.324 0-3.715.544-.978.545.586 1.09 0 2.178-.978.544-2.347.907-3.52 1.27 1.955 0 2.933.545 5.475.363.196 2.54-4.302 2.722-6.062 4.356.782 0 1.76 0 1.76.363l-.977.363.391.544c-.978.726 2.15 1.815 2.346 2.722 2.346.182 2.542-.726 4.302-.907 2.151 1.27 6.648 1.27 8.408 2.722-.782.544-1.564.907-2.346 1.27 1.76.545 6.061.363 7.821 0l-.391.545.978.181c-.587.726 1.955 1.089 1.76.545-.782 0-.587-.545-1.174-.545l.392-.544-.392-.545c.978-.907 2.738.182 4.302 0 .783 1.09-1.955.182-1.173 1.27 1.369.364 1.956 0 3.715.545 1.76-.907 3.911-1.815 6.649-2.178 7.039 1.997 16.23 3.993 24.638 4.356-1.369 1.452-.782 2.54 1.173 3.63.391-.364-.782-1.634.587-1.634.195.726 3.91.363 5.475 1.27.586-.907 3.715-.363 4.888-.907.196.544-.977.726 0 .907 4.498.363 7.235-.907 10.755-.544-.782 1.815 7.43 0 10.168 1.27 0 .726-.978.908-.587 1.815-4.693 0-7.821 2.36-12.123 1.633l.391-.544-.391-.544c-.587-.545-1.955-.727-3.715-.545 0 .363.977.363 1.173.544l-.587.545.587.544c-.587.726-3.715-.544-4.889.363v-.363h-.586c-.782-1.27-2.347.363 0 .363l-.391.545.977-.182c1.956 2.54 12.711 1.996 13.297 4.356 2.151-.545 3.324-1.452 4.889-2.178 1.368 1.815 5.279.726 6.061 2.54-.195-.725 1.174-.725 2.347-.907 3.911.726 6.844 1.996 11.537 2.54-.587 1.816 5.084 2.542 6.061.908-1.759.182-1.759-.544-3.519-.363 0-1.814 3.128-1.814 5.475-2.54 2.151.363 1.369 2.177 4.888 1.814-.195-.544.587-.725.587-1.27l.978.182-.587-1.27-.391.544c-2.151-1.09-5.475-1.634-6.062-3.63-3.128.545-1.76-1.089-3.52-1.27-1.564.544-3.128 1.089-5.475 1.27-.782-.181 0-1.27-1.173-1.27-1.369.544-4.497.181-6.648.363-1.174-.545-.978-1.815-2.347-2.178-1.76 0-3.715 0-3.519-.907 0-1.09 3.715-.182 3.519-1.27-1.369-.364-3.324-.545-3.519-1.634 2.933.181 3.91-.544 6.648-.363-.196-1.089.782-1.452 2.346-1.633 1.76 1.27 4.693 3.63 8.409 3.448 1.368 0 2.346-1.089 4.302-1.27-1.76-.363-2.347-1.27-5.476-.908 1.565-1.452-1.759-1.815-1.759-3.448 2.346-.544 4.301-.181 6.061-.544-3.715-1.27-11.537-.363-10.754 2.54-6.062-.181-9.973.182-11.537-2.54 1.173-.908 4.497-.363 6.648 0 .978-.363.587-1.634.587-2.541 3.519-.907 6.257.544 9.581.544 1.173-.544.978-1.633 2.933-1.633 7.04 1.815 10.364-1.815 15.643-2.722 4.693.544 8.409-1.452 13.884-1.633 4.106 1.27 12.123.544 15.056 2.54h2.933c2.738.726 6.649 3.086 10.168 4.356 2.543.907 3.911.726 4.302.363 1.174.726 3.129 1.27 5.475 1.633l-.977.363.391.544c-4.302.726 2.542 2.36 4.302 3.086v1.27l-.978-.182c.782.363 1.369.908 1.173 1.634l.391-.545c2.542.908 4.693.182 7.235.908l.978.181-.391-.544h1.173c1.173-2.178 8.604-1.09 8.995.544 2.542-1.633 7.039-.181 12.123-.544.392 1.089 3.129 2.54 4.889 1.27-.978 0-2.151 0-1.76-.544 3.324-.545 5.28 1.996 8.995 2.177 3.52-.907 8.799-.181 8.995 1.633-5.28 1.452-10.559-.907-15.643.363 2.933 1.27 6.257 1.09 8.408 3.086-.782.544-2.542.363-2.347 1.27.196 1.27 3.911.544 3.52 1.815-.782.544-2.151.726-1.76 1.814.587 0 .782.182 1.173.363 2.151-.181 4.107-.544 6.649-.544l.391.544.391-.544c1.564 2.178 9.386 1.815 15.057 1.815l.977.181.391-.544c.782.181 1.174.363 2.347.363-.782-.363.195-1.452.586-2.178 5.084-.726 11.146 1.996 14.47-.363l.978-.181-.391-.545h1.76v-1.27c1.76.181 1.564-.363 2.933-.363.195 1.452 2.542 1.815 4.888 2.178 0-.545.392-.726 1.174-.908 0 .545.391.726 1.173.908.587-.363.587-1.09 1.76-1.27 2.737 1.088 6.257-1.634 8.995-.545.391.726-2.738 1.27-.587 1.815 1.76.362.978-.726 1.173-1.27 2.933.18 6.649.18 8.408-.908-2.346.363-4.497-.182-6.648-1.27-2.542 0-3.52.907-6.062.907-1.564-.907-4.106-1.089-6.061-1.815V69.26c-2.934-.181-3.325-1.633-6.649-1.633-.978-1.996 2.542-1.815 3.715-2.722l.392.544.391-.544c2.151.907 5.67-.544 7.235.363 1.564.181.391-1.27 2.346-.907-3.324-1.09-6.453-.182-9.581.362l-.391-.544-.978-.181c-.782-1.634-1.173-.908-3.52-.545l-.782-.544-1.173.181c-.196-.181 0-.544-.587-.544-1.76-.908-.782.907-2.933.544-1.564-.181-2.542-.726-4.889-.544.196.363.978.544 1.174.907h-6.062c2.151 0-2.542-.363-2.933-.363-.196 0-.391.182-.587.182-.195 0-.391-.182-.782-.182-1.173-.181-3.128.182-4.888 0-1.76-1.27-6.062-1.27-8.409-2.178-1.173.363-2.151.726-3.519.908-.978-.363-1.174-1.089-2.347-1.27 0 .726-.782 1.27-2.346 1.27-1.369-.545-3.324-.726-6.062-.544l-.391-.545-.978.181c-2.542-.907-7.821-.362-8.995-1.814-2.933.181-5.084-.182-7.235-.363l.392-.545-.978-.363c2.346-.544 3.715-1.451 6.648-.907.391.907.196.726 1.76 1.27 1.955 0 3.52-.544 6.062-.363 0-.725-1.173-.907 0-1.633.391 0 1.173 0 1.173-.363 3.52.726 6.453.545 6.648 2.178 3.325-1.27 4.693-3.448 8.995-3.993-3.128-.362-4.302-.544-6.648-.544 2.151 1.633-8.604 1.815-8.408-.544 2.151-.182 5.866-.908 7.821-.363.196-.908 4.107-.182 4.889-.908-1.369-1.089-3.129-1.815-5.475-2.54l.391-.545-1.369-.181c.978-2.541-5.475-1.27-7.235-2.541l.391-.544-.391-.545c2.933-.544 6.257-1.633 9.581-.544 8.018-2.904 21.51-1.09 26.007 2.177 3.324-.181 3.911.908 6.649.908l-.392.544.392.545c.195.726-2.738-.182-1.76.907l-.978.363.391.544c-4.693-.363-6.062.545-10.168-.544 0 1.089 2.933 1.996.587 2.54h2.933l.782.545c.391-.544 1.564-1.089 2.542-.907l-.196-.545c3.129-.181 1.565 1.815 3.52 2.178 2.542 0 4.302.363 6.062.544-.196 1.815-3.129.545-6.649.908 0 1.089-1.955 1.089-1.759 2.178.586.362.586 1.088 1.759 1.27 4.693-.545 10.169-.182 14.47 0-1.564-.182-1.368-1.452 0-1.815 2.934.181 5.476 2.178 8.995.907.782-1.088-1.955-.181-1.173-1.27l.978-.363-.391-.544c2.15-.182 3.324.363 4.888.544.391 1.27-3.324 1.996-1.173 3.085 1.369-.907 3.52-1.452 6.648-1.633.196.544.196 1.27 1.76 1.27.587 0 .978-.363 1.173-.544-.586-.545-1.955-.726-1.76-1.633 1.76-.726 2.738-.363 5.476-.363-.391-1.09 2.346-.726 2.346-1.634-3.911-.726-7.626-3.63-12.123-2.177l-.978.181c-.196.182-.196.544-.391.726l.782.363a.99.99 0 01-.587.907c-3.324.182-5.279-.181-5.475-1.633 1.174-.726 3.324.544 4.889-.363-2.933-.181-6.257-1.815-10.755-2.178-1.369.545-5.475 1.09-7.235.545 1.369-1.27 4.106-1.996 6.648-2.722-.195 1.27 2.151.726 2.934.363.782-1.27-1.956-.545-1.174-1.815 1.76-.363 2.542.181 5.476 0l-.392.544.978.363c1.369 1.27 5.28.545 7.822.545.782 0 1.76.544 2.346.544 3.715.182 7.04-.363 10.168-.363 1.76 0 4.302 1.089 5.475 0 .196-.726-2.346-.181-1.76-1.27l.391-.363-.391-.363c3.325 0 5.671-1.996 7.822-.544 0-.545.195-.908.587-1.27 4.888 0 4.497 2.54 6.648 3.992.978-.363 2.933-.182 3.715-.545-1.173 0-1.368-.363-1.173-.907 3.324-1.633 9.19-.908 12.123.363 0-.545 1.956-.182 1.76-.908-1.76-.363-1.76-1.814-5.475-1.27.391-1.27-.978-1.633-2.933-1.633l.391-.545-.977-.181v-.545l.977-.362-.391-.545c5.866.726 10.755-1.815 12.124-3.448-2.738 0-4.107.726-5.476 1.633-4.301.182-7.821-.544-10.168.363-.586-.726-2.933-.544-2.933-1.633 1.369-.181 3.324-.181 3.52-.907-3.324-.726-7.039-1.27-10.168-2.178-1.369-.182-1.369.544-2.933.363-1.173-1.452 2.346-1.996 3.52-1.27 7.43 0 16.425-1.09 23.464.362.783-.544 2.347-.544 2.934-.907 1.759.181 2.541.907 5.475.544.586-.907 1.173-1.814 2.346-2.54 7.431.907 19.749 3.448 27.18.544.391.908-1.76 1.997 0 2.54 11.146-1.995 20.336 1.271 28.94 1.271 1.564 1.452 2.542 1.09 6.062 1.27-.196 1.09-1.369 1.815-1.76 2.723 2.346-.545.195 1.27 1.76 1.27 5.475.181 7.626 3.085 13.296 3.448 4.107.182 8.409-1.815 13.884-1.27 2.737.363 4.693 1.089 7.821.363l.391.544.978-.181c.782.363.587 1.089.587 1.815-.782.362-1.76.544-2.347.907.978.544.782 1.633 1.76 2.178l-.391.363c1.564-.182 3.52.544 2.738 1.451l1.173-.181c0 .726.782 2.178 3.715 1.27.782.545.782 1.27 1.76 1.633 3.324.363 5.084-1.27 7.822-.362.195-.363.782-.545.586-1.27 5.28 1.451 7.822-.727 12.71-1.271.196 1.27 2.542 1.996-.586 2.54 2.933-.181 3.324.908 6.061.908.196-.907-1.368-.907-1.173-1.815 2.542-.363 6.062-1.815 8.995-.907-.587 0-1.564 1.452-.587 1.27 4.693.181 6.062-1.633 10.169-.363-.587 0-.783.544 0 .544l.977.182c.196-.363.391-.544.782-.726.587 0 1.565-.181 2.347-.181l-.391-.545c5.084-.181 14.274.182 17.989 1.634.978 0 .392-.726 1.76-.545 1.565 0 .782 1.27 2.347 1.27.977-1.088 3.324-1.451 2.933-3.085-2.738.363-3.911-.363-5.475-1.27 3.128-.907 9.972-1.27 13.296.363 1.76-.363 2.934-1.27 5.476-.544.391 1.088-2.152.544-2.347 1.27 5.671 2.359 12.515 1.996 17.403 3.992 7.039.182 12.319-1.814 19.359-2.54 0-.545 1.564-.182 1.173-.908-2.542-1.451-5.866-3.266-11.537-2.177-1.369-.545-6.062-1.815-7.235-.545 1.76.907.587 1.815 0 3.085l-.978-.181-.391.544c-1.76.182-1.955 1.089-4.302.907-.391-1.451-5.475-3.085-2.933-3.992-3.715.544-3.52-1.089-6.062-1.27-6.452.181-9.777-1.634-16.229-.545-.196-1.089-2.151-1.27-3.52-1.814.978-1.09.196-3.086 2.933-3.086.196 1.997 2.542 2.723 6.062 3.086 3.519-1.09 4.888-.182 8.995-1.27 3.519.907 5.866.907 8.408 2.54 3.52-.907 6.648-3.085 11.537-1.633l.391.544c.195-.181.195-.363.391-.544 2.933-1.09 6.648-.726 9.972-.726l-9.386 1.089c.978 2.722 8.604.726 10.755-.363.782.363.196 1.451 1.76 1.633 5.866-2.54 16.425-1.633 24.051-.544v-2.723c3.52-.544 3.52.363 6.062.908-.391.363-2.346 0-2.346.544.195.363.782.545.586 1.27.783-.362 2.933-.362 3.715 0 1.565.726-.977.545-.586 1.634 4.106 1.452 10.559-1.09 6.062-2.722-.978.907-3.52 0-4.302-.363.782-1.452 1.759-2.178 1.759-3.448 2.543.363 5.867-.726 8.409-.363-.587 1.089-2.151 1.814-3.52 2.54 1.369.182 0 1.634 1.76 1.634 6.844-1.09 11.928 1.451 16.816-.545-2.542-.544-5.084 0-8.408-.544 1.369-1.27-2.346-1.27-1.173-3.448 3.715.181 7.235-.908 10.168 0 .196.544-.782.544-1.173.907 4.888 0 9.777-.363 14.47.363 1.564-.181 2.737-1.633 4.302-.907 1.564.363 1.173 1.814 2.933 2.177 3.715.363 4.106-.907 5.475-1.814 14.47.907 29.331-1.27 42.627-.363V111H-58.201c1.173-.363 2.151-.544 3.715-.363-1.955-.907-3.91-.907-6.061-.726v-9.074c4.106.545 8.212-1.633 12.123.363.587-.544 1.369-.907 1.76-1.633-3.52.182-4.693-.907-7.822-1.633-2.933.181-4.106-.545-6.061-.908V93.76c1.955 0 3.91.181 4.888-.363v-1.27c-1.173.544-3.129-.364-4.888-.727zM943.354 35.687l-.391-.544h.978v1.815c-.587-.363-1.174-.545-1.565-.908l.978-.363z" fill="#fff"/><path d="M686.219 43.49c1.565-.362 4.694-.544 5.476.364-.978.363-1.956.907-4.302.544l.391-.544-.978.181c.196-.363-.391-.363-.587-.544zm-233.083 4.9l.977-.362-.391-.545c2.738-.363 5.28.182 7.822.545.782 0 1.173-.545 1.173.363l-.977.363.391.544c-3.129.363-7.235-.363-8.995-.907zm-26.594 9.619c1.369-.907 4.498-1.089 6.649-1.633.586.363.586 1.089 1.76 1.27l-.391.544.977.363c-2.737 1.27-7.235.908-8.995-.544zm77.238 9.618l-.977-.181c.391.363.586.726.391 1.089h.586c2.542-.363 3.325-.182 5.476.363.195 1.633-1.956 2.359-4.302 2.722-2.347-.545-6.453-2.36-8.409-1.27 0 .362.978.362 1.174.544-3.52-.182-8.017 1.089-10.168-.363l.391-.544.391-.545c.977-1.27-2.933 0-1.173 0l-.392.545.392.544c-5.28 1.815-7.431-.544-10.755-1.633-2.151-.726-4.889-.363-4.889-1.634.978 0 2.151.182 2.347-.363-2.151-.181-2.933-1.451-5.475-.544-.196-.363-.782-.544-.587-1.27l.391-.545-.391-.544c3.911-.182 12.906-.545 15.057 1.27 1.173-.363 4.302.182 3.519-1.27.978 1.089 3.325-.182 4.889 0 .978.181 2.737 1.815 3.52.363-.196.726.195 1.089 1.173 1.27 1.564-.907 4.106-1.27 6.062-1.815.586.726 2.151.726 4.301.545l.392.544.977.182c-.977 1.27-4.693.725-3.911 2.54zm-42.823-3.447c1.174 0 3.911-.727 4.889 0l-.391.544.391.544c-1.369.363-5.084 0-4.889-1.089zm33.047 11.07c-.196-.908.782-1.271 1.759-1.634l.392.544.977-.181c.587 0 .978.363 1.174.544l-.978.182.391.544c-1.369.182-2.151.363-3.715 0zm-11.342.362c.196.907-.782 1.27-1.173 1.815l-.978-.182-.391.545c-1.564-.182-2.346-.908-4.302-.908-.586-.907-.195-.907.587-1.633l.978-.181-.391-.545c2.346.182 2.542 1.27 5.67 1.09zm-10.95.908v-1.815c1.564 0 1.173-.545 2.346 0l-.391.544.391.545c.196.544-1.173.544-2.346.725zm-8.408-1.815l1.173.181.587-.544c.977-.182 1.955 1.088.586 1.27l-.586-.544-.587.544c-1.173.181-2.738-.907-1.173-.907zm-2.347-1.271c1.565-1.27 5.084-.362 6.062.545h-1.76l-.977-.363-.978.363c-.978 0-2.933.363-2.347-.544zm-40.476-16.695l-.391.544.977.181c1.369 0 0 1.09-.586 1.27l-.978-.18.391.544c-.391 0-1.173 0-1.173-.363l.782-.726-.195-.907c.195-.363.586-.363 1.173-.363zm-3.52-2.179c4.302-1.088 8.799.182 11.537 1.634-2.933 0-4.889.363-7.235.545l.391-.545-.978-.181c-.586-.908-3.715-.363-3.715-1.452zM242.735 38.228c.391 1.633-2.151 1.996-3.52 2.722-.782-.726-3.128-.544-3.519-1.633l.977-.363-.391-.545c2.542.182 3.52-.544 6.453-.181zM64.99 29.88c-1.76.363-4.107.363-4.303-.907l.391-.363-.39-.363c1.564-.545 4.497.181 4.301 1.633zm77.042 1.27c-.978-.181-2.542-.181-2.933-.544 1.173-.182 4.302.181 2.933.544zm-24.638 8.348c-.391.363 2.347.726.587.908 0-.363-2.542-.726-.587-.908zm718.413.545c0 .544 1.76.181 1.76.544-.586.726-3.129-.363-1.76-.544zm-73.523 8.711c-8.408.907-8.017-3.267-13.297-3.63V43.31c-2.737 0-4.301-.363-5.475 0 1.565 2.178-6.257 1.452-8.408 1.27 1.173 1.09-.782.908-1.173 1.815-2.933.182-3.911-.544-6.648-.362-.196-.545.195-1.09-.587-1.27-2.347 1.27-9.19.362-10.168-.908 1.76-1.633 5.475-1.452 8.408-1.27.391.907-1.173.544-1.173 1.27 1.369.181 2.542.363 3.52.544-.196-.907 1.564-.907 1.76-1.633 2.15 0 2.15.907 4.301.907.782-.726 2.933-.726 3.52-1.633-.782-1.27-3.324-1.633-4.888-2.54-2.347.544-3.716 1.633-4.889 2.721-5.084-1.814-15.643 1.27-18.772-.544-1.955 1.27-5.475 1.27-8.995.544l.392-.544c-1.76.181-4.107.363-5.476-.544l.392.544c-1.76.544-6.062.363-6.649-.544 1.173-.908 4.302-1.997 6.649-1.27l-.392.544 1.76-.545-.977.182c-.392-.545-1.76-.726-2.347-1.27-4.302.725-10.559.362-15.057 1.633-1.759-.363-3.715-.726-4.301-1.815.195-.726 2.933-.181 2.346-1.27-.391 0-.782 0-.586-.363l.391-.545-.978-.181c2.933-1.633 12.905.544 15.056-1.633-3.324-1.09-8.212-1.815-10.754-2.541.391 0 1.173 0 1.173-.363-1.76-.182-2.933-.726-4.302-1.27-.391-1.09 2.542-.363 1.76-1.634-1.955.726-3.129.182-4.889.545l-.391-.545-.391-.544c.196-.363-1.76-1.089-1.76-.363v.544l-.977.182.391.544c-1.173 0-6.649-.363-8.408-.907l.391-.545c-1.369.182-2.542-.181-3.52-.544 0-.363 0-.545.195-.907 1.369-.363 2.738-.182 4.107 0l-.391-.545c4.888-1.633 11.928-.907 15.056-1.633l.391.544c.196-.363.391-.544.587-.907.391-.363.782-.726 1.173-.908l-.977-.181c-.587-1.27-2.934-1.633-4.302-2.54 6.648.18 14.079-.182 15.643-3.993 3.128-.182 6.453 2.178 8.408.544-3.129-1.996-7.821-3.266-8.995-6.17.783 0 .782-.363 1.76-.363 5.475 2.722 10.364 5.807 15.643 8.711.196.908-1.564.726-1.759 1.633 1.564 3.085 8.994 1.27 11.536 3.993 6.257.181 8.8 2.359 10.168 4.9-1.173.726-2.933 1.27-3.715 2.177 3.129.363 4.498 1.634 6.649 2.541 2.346-.726 4.301.181 6.648-.363-.391.907 1.564.544 1.173 1.633.196.726-2.346.182-1.76 1.27.978 0 1.955 0 2.347.364.391 1.089-1.369 1.27-1.174 2.177 2.151-.544 4.302 1.09 5.476 1.815 3.519.363 4.301-.907 5.475-1.815-.783 0-1.369-.181-1.76-.362l.391-.545-.978-.363c0-.726 2.151-.181 2.933-.363.391-.907-2.151-.907-.586-1.633 2.346-.363 1.759.726 3.715.544-1.369-1.27-4.497-1.451-5.475-3.085h-.587c0 .908-2.151.907-2.933.545-.195-.726.782-1.09 2.346-.908l-.391.545c.783-.363 1.565-.182 2.151-.182v.545c4.302-1.452 10.951.726 14.47 1.633-2.542.544-4.693 1.452-6.648 2.54 2.542 1.27 8.017 1.09 9.581 2.723-1.759 2.177 1.565 4.718-1.173 7.985z" fill="#fff"/><path d="M677.811 23.891l.391.545-.978.181c.196-.363 0-.726.587-.726zm-6.648 8.711c-.391-.181-1.369-1.452 0-1.633l.978-.182.391-.544c1.368.907 1.173 2.36-1.369 2.36zm-231.324 1.815c5.475 1.27 10.168 2.904 17.403 3.085l-.391.544.391.545c-2.346 1.089-8.017 0-12.123 0-2.151 0-3.911 1.089-4.889 0 .782.907-.978.726-1.173 1.27-6.062.363-14.861 1.27-19.945-.363-14.274 2.541-24.051-1.814-38.521-2.54-.783-.908-.196-1.634 1.173-2.178-2.151.181-3.324-.363-4.889-.544-.586-1.452 3.324-.726 2.933-2.178-1.368.181-2.346 0-2.933-.363l.391-.545-.391-.544c4.107-.907 9.386-1.452 14.47-1.815-2.151-.726-1.76-1.814-1.173-3.448 6.257-2.54 15.448.363 21.118 1.815 2.347-.726 6.062-.726 8.995-1.27 8.408 1.27 12.124 4.9 19.359 6.714l-.391.545.977.363c.196.726-.391.726-.391.907zm-72.35-3.992c1.565-.908 6.258-.726 7.822 0l-.391.544.391.544c-2.347.726-7.235.545-7.822-1.088zm235.43-29.4l-6.257-.544c1.955 0 4.106 0 6.257.544zM23.535 15.362l-3.911 1.996c.586-1.088 2.346-1.451 3.91-1.996zm1.76-.907c-.391.363-.978.544-1.565.907l1.565-.907zm159.951 3.811c0 .363 0 .907-.195 1.27l.195-1.27zm-.195 1.27l-.196 2.178c-.195-.726 0-1.452.196-2.178zM32.725 17.358c-.586-.363-.977-.907-1.173-1.27l1.173 1.27zm501.951 2.178c-1.173 0-2.347-.363-3.52-.363l3.52.363zm105.591 5.989c-.782 0-1.564 0-2.346-.182l2.346.182zM79.068 30.243l-2.542.907c.587-.362 1.369-.726 2.542-.907zm266.912-.726c-.587 0-1.173-.181-1.76-.363l1.76.363zm-89.753 9.437l-1.369.363c.391-.182.782-.363 1.369-.363zm-3.52.726l2.151-.545c-.586.363-1.173.726-2.151.545zm99.335-7.44l-6.062-.364c2.151 0 4.106 0 6.062.363zm291.941 1.27l-5.476-1.452c2.347 0 3.52.907 5.476 1.452zm180.092 8.53l1.76.18c-.587 0-1.173-.18-1.76-.18zm77.629-4.356c-1.173.363-2.346.363-3.715.363l3.715-.363zm-3.52.363l-7.235.907c1.956-.907 4.693-.726 7.235-.907zm-362.335-.363l-1.76-.182c.587.182 1.173.182 1.76.182zm258.699 3.448c-4.497.181-8.799.363-13.297.363l13.297-.363zm-529.717 2.903l-2.542-.726c1.173-.181 1.76.545 2.542.726zm157.8 1.634c.978-.182 1.956.362 2.933.544l-2.933-.544zm22.879 1.451c-.782 0-1.565-.181-2.347-.181l2.347.181zm-37.348 2.722l-2.933.908c.782-.545 1.955-.726 2.933-.908zm-85.06 2.36l2.346.181c-.977.182-1.564 0-2.346-.181zm362.922-7.441l1.76-.907c-.587.363-.978.726-1.76.907zm-118.693-2.359l-2.542-.363c.782.181 1.76.182 2.542.363zm-6.062 1.815l6.062-.545c-1.955.363-3.911.908-6.062.545zm-18.967 2.54l2.151.363c-.978.182-1.369-.181-2.151-.363zm-23.856 9.074l-3.52.182c1.174-.182 2.347-.545 3.52-.182zm-22.878-6.17l3.52.363c-1.173.181-2.347 0-3.52-.363zm-47.712-5.081l8.408.907c-2.737-.181-6.453.544-8.408-.907zm13.884 4.174h2.346c-.587 0-1.564.181-2.346 0zm-24.248 9.436h-2.933c1.174-.181 1.956 0 2.933 0zm.001 0h3.715c-1.173.363-2.542.182-3.715 0zm20.727 2.722c-.587.363-.978.726-1.369.908l1.369-.908zm46.538 2.178a2.68 2.68 0 01-.782.545l.782-.545zm5.28 1.27l-3.52.908c.978-.544 1.956-.907 3.52-.907zm-42.237.545l-2.346-.363c.782.182 1.564.182 2.346.363zm31.873 10.525c-.977-.18-1.368-.362-2.346-.544l2.346.545zm-3.519-1.27l.195-1.088c.196.362.196.725-.195 1.088zm-18.772.908h-3.716c1.369 0 2.738-.182 3.716 0zm-12.515 1.633c0-.363.196-.907.391-1.633l-.391 1.633zm-.391-1.815c-.196-.363-.196-.726-.196-1.27l.196 1.27zM421.458 64.36l-1.564-.907c.782.182 1.173.545 1.564.907zm-13.296-6.895l11.341.544a5119.67 5119.67 0 01-11.341-.544zm12.905 1.995c-.391-.18-.782-.544-1.564-1.088L424 59.46c-.782.181-1.955.181-2.933 0zm-.782-2.358c.391-.363.783-.545 1.174-.908l-1.174.908zM57.363 28.065l3.715.545c-1.368.181-2.542-.182-3.715-.545zm-19.358-2.722l-3.52-1.633c1.564.363 2.347 1.089 3.52 1.633zm-17.99 7.622l-2.933-.181c.977 0 1.955 0 2.933.181zm638.438-5.988l-10.951-.726c3.715 0 7.431.181 10.951.726z" fill="#fff"/><path d="M671.554 29.699l.586 1.27c-.586-.545-.782-.907-.586-1.27zm0 6.533l4.301.363c-1.368.181-3.128 0-4.301-.363zM377.462 31.15c-.783-.181-1.565-.181-2.347-.363l2.347.363zm79.585 6.897c.977.181 1.955.181 2.737.544l-2.737-.544zm-17.599-4.537c.782-.182 1.564 0 2.346-.182l-2.346.182zM1282.59 1.025l-.98-.181.39-.545c-4.5-.725-17.8-.181-18.77 2.178 5.67.363 14.27-.363 19.36-1.452zm424.32 10.526c-5.09-1.633-13.3-4.174-20.53-3.448 1.76 1.996 6.45 2.54 11.53 2.722 1.57 1.089 8.02 3.267 9 .726zm-192.22 7.44c5.48-1.27 1.18-4.173.59-6.533-1.57-.726-3.33-1.451-6.06-1.633-2.94 3.085 1.17 7.078 5.47 8.166zm-288.22-6.714c1.36 0 2.34 0 2.34-.545-.98 0-2.93-.362-2.34.545zm473.2 2.359c-.78 0-.78-.363-1.76-.363-2.34.908-2.54 3.448.59 3.992l.98-.181.97.181c-.39-1.088.4-2.903-.78-3.629zm-425.49 3.448c1.37 0 2.34 0 2.34-.544-.58-.545-2.54-.363-2.34.544zm-104.81 0h-1.17v.545h1.17v-.545zm77.63 2.722c2.93-.181 4.1-1.27 5.47-2.177-3.32-.726-7.43.363-5.47 2.177zm19.94-1.815c1.57 0 2.94 0 2.94-.544-.98.181-3.52-.544-2.94.544zm22.29.001c-.78-.545-3.12-.182-4.3-.545-.98 1.27 4.3 1.815 4.3.545zm495.5-.545c-.78.182-3.13-.363-2.93.363.78-.181 2.93.181 2.93-.363zm-553.38 3.63c.2-1.089-1.76-.908-2.34-1.634 1.37-1.27 4.89.726 7.23-.362-.58-1.815-5.86-1.634-8.99-1.27-.39 1.814-4.11 1.814-4.89 3.447 3.32.908 5.87.182 8.99-.181zm368.79-2.178c-1.37.907-5.28.544-4.89 2.54 3.13 1.27 8.41-1.451 4.89-2.54zm88.78.363c-.78 1.089 2.93.181 1.76-.363-.59-.181-1.76.181-1.76.363zm-218.22 1.815c-1.96-.182-2.74.181-2.35 1.27 1.37-.181 2.74-.181 2.35-1.27zm-250.1.725c-.78-.181-1.56-.362-2.93-.362-.79 1.088 2.73 1.27 2.93.362zm481.42 2.723c0-.726.19-1.452-1.17-1.634-.2.363-.98.545-1.18.908 1.57-.182 1.18.726 2.35.726zm-286.27.907c4.3.181 9.38.907 12.12-.363-5.28-1.089-17.01-2.178-19.94-.363 1.56 1.27 5.08.544 7.82.726zm-373.09 1.271c0-.908-1.37-1.09-2.35-1.634-.39 1.27 1.57 1.09 2.35 1.634zm248.92 2.177c.2-1.089 2.74-.907 4.89-.907 1.37-.908.78-1.09.59-2.541-3.52 0-3.91 1.633-7.24 1.633.39.726 1.17 1.27 1.76 1.815zm278.45-.907c.59-.726-1.96-1.452-2.35-.545.98 0 .59.908 2.35.545zm-10.75-.363c.97.181 1.56.544 2.34.544.59-.726-1.95-1.27-2.34-.544zm246.18 1.633l.78-.363v-1.27c-6.84-.182-14.47-.182-21.12 0-1.56 0-5.08-.363-5.47.907 8.6 1.089 17.01 0 26 1.27l-.19-.544zm11.15 2.359c0-1.089-5.87-1.633-8.41-2.178v.545h-1.18c.98 2.178 9.78 3.992 9.59 1.633zm-287.45-3.629c-1.37.181-1.37-.545-2.93-.363 0 .363-.2.726-.59.907.78.544 3.91.544 3.52-.544zm10.17.907l-.98-.363.39-.544c-1.76-.182-1.76.544-3.52.363-.19 1.27 2.94 1.27 4.11.544zm-5.48 12.885c.79.181 3.13-.363 2.94.363-.2.363-.78.544-.59 1.27-3.13-.181-5.47 0-6.65.908 3.52.544 4.3 2.359 6.06 3.63 6.07 1.814 9.59-1.09 14.47-1.271 5.87-.182 8.22 1.27 13.3 1.27 4.69-.181 7.04.182 10.17-.363 5.86 4.174 17.79 1.452 28.35 1.815 1.96-2.904 4.89-5.081 12.71-4.9 0-1.452-1.76-1.996-1.17-3.63 3.32-.907 4.3.545 8.99.364 1.18-.726 2.55-1.452 4.89-1.634l-.39-.544.98-.182c0-.363.39-.363.59-.544l-.4-.544.98-.182c0-.544-1.95-.181-2.34-.544-1.96.907-8.02 2.722-10.76 1.27 0-2.36 4.69-2.178 5.48-3.992-1.96-.726-3.91.362-6.65 0-.2-.182-.59-.364-1.18-.364-.39-1.996-2.34-3.992-7.82-4.9-1.76-.362-4.3 0-6.65-.362-.97-.182-1.36-.726-1.76-.908-4.88-1.088-8.79.726-10.75 1.634-1.17-.545-2.15-1.09-4.3-1.27-1.57.725-4.3.725-7.24.544-2.73.726-3.71 2.359-7.82 2.54-3.13 3.811-8.6 6.352-18.77 6.534-1.56.362-1.96 1.27-2.93 1.814-3.72.545-9.78 0-12.13 1.27-4.3.182-8.6.364-10.75 1.634 4.1.726 7.04.544 11.14-.726zm103.05-1.452c-.19-1.089 1.76-.907 2.35-1.633-.98-1.089-6.26-1.452-7.82-.363l.39.363.39.363c1.17.726 2.74 1.089 4.69 1.27zM1271.83 31.15c2.54.908 4.69-.544 4.89-1.814-2.35-.908-4.89.363-4.89 1.815zm275.91-2.177h-1.18v.544h1.18v-.544zm-113.22.544c-3.91-.363-1.37.907 0 0zm111.46 2.178c1.37 1.089 6.26.363 7.23-.544-1.56-.363-7.62-1.452-7.82.362l-.98.182c.59 0 1.18-.182 1.76-.363l-.19.363zm168.75-1.271c-1.17.182-3.72-.363-2.93.545 1.36.181 2.34 0 2.93-.545zm12.12.364c-1.37-.182-2.34-.545-4.3-.363-.19 1.451 3.52.907 4.3.363zm-502.73 0c-3.91-.364-1.37.907 0 0zm303.28 2.177c1.96 0 4.5.181 5.48-.363l-.39-.544-.4-.545c-.58-.544-1.17-1.089-2.93-.907-.58.907-1.76 1.452-1.76 2.36zm209.62-1.815c-2.15.182-4.69-.907-5.47.363 1.76.363 4.1.182 5.47-.363zm-210.4 1.09c-1.37 0-2.35 0-2.35.544 1.37.181 2.35 0 2.35-.545zm-13.1 1.633c.59 0 .98.363 1.17.544 1.76-.907 7.04-.181 7.24-1.815-3.33.182-8.22-.544-8.41 1.27zm-91.71.907c2.35 0 4.3 0 5.48-.544l-.4-.545.4-.544c-2.16-.726-6.65-.363-5.48 1.633zm-362.73 4.355c1.18.908 1.18 1.997 2.94 2.178-1.37 0-2.35 0-2.35.544l.98.182-.39.544c3.52-.181 5.47.363 8.41.363.97-1.088-2.74-2.177-1.76-3.448-7.04-.907-8.41-4.537-13.89-6.17-2.34 1.815 3.33 3.993 6.06 5.807zm162.69-4.718c.98.544 4.11.544 3.72-.544-1.76 0-3.72-.182-3.72.544zm425.5.726c1.17-1.815-5.67-1.633-6.06-.544.97.544 4.88.726 6.06.544zm-279.04.544h2.35c-1.17-.726 1.17-1.452-1.17-1.633.58 1.089-.98 1.089-1.18 1.633zm162.69-1.27c-.39 1.27 2.93 1.27 2.35 0-1.57 0-1.18-.544-2.35 0zm-548.096 3.267l.977-.182c-.782-1.089-3.52-1.089-6.062-1.633-3.91-.726-8.603-1.633-13.296-.907 2.151 3.084 12.123 2.177 18.772 3.084l-.391-.362zm41.846-2.904c-1.37 0-2.35 0-2.35.544 1.37.182 2.15 0 2.35-.544zm325.96.544c.98 0 2.94.363 2.35-.544-1.17 0-2.15 0-2.35.544z" fill="#fff"/><path d="M1057.71 40.587c.4-1.089-1.17-1.27-2.93-1.27 0 .907.78 1.633 2.93 1.27zm664.84-.907c-.59 1.27 1.37 1.27 3.52 1.27.59-1.27-2.15-1.815-3.52-1.27zm-679.31.907c-.19-.726-2.93-.181-4.3-.363-.78 1.27 4.7 1.634 4.3.363zm602.85 1.996c2.74.182 1.96-1.633 0-1.633-1.17.544-.19.726 0 1.633zm-566.08-.363c.19-.725-.79-1.088-2.35-.907-.59.907.78.907 2.35.907zm376.22 0h1.76v-.907h-1.18c0 .363-.78.363-.58.907zm-402.62-.363c-1.37 0-2.35 0-2.35.545.78.544 2.54.363 2.35-.545zm588.18.363c-.78.364-.78 1.09.59 1.27 0-.544.19-1.27-.59-1.27zm10.37 1.27v-.907h-1.18c0 .363-.78.363-.58.908h1.76zm-323.23-.725c-.2.907.78 1.27 1.76 1.633.19-.544 1.37-.363 2.35-.363.19-1.451-2.55-.181-4.11-1.27zm6.06 0c0 .363-.19.726-.59.907h1.76c.2-.544-.39-.725-1.17-.907zm-282.55.907c.97-.181 2.54-.181 2.93-.544-1.57 0-2.93 0-2.93.544zm39.1.726c1.57 0 2.94 0 2.94-.544-1.37-.363-2.74-.545-2.94.544zm550.25.545c1.18 1.633 8.41 1.089 8.41-.545-2.93-.726-6.45-.544-8.41.545zm-257.91.726c0-.726-.98-.908-1.18-1.634-2.34-.181-3.71.182-4.3.908 2.15.181 2.93.907 5.48.726zm75.87-.908c.97 0 1.56-.181 1.75-.544-.97-.182-1.36 0-1.75.544zm-119.28-.363h-1.18v.545h1.18v-.545zm136.29 0c-1.18.182-4.11-.544-3.52.545.39.726 4.3.544 3.52-.545zm142.74 8.348c2.93-.544 2.93.363 5.48.363 3.71-1.27 6.25-3.267 10.75-3.992.39-2.178-2.54-2.541-3.71-3.993-5.67-1.089-9.19-.181-12.71 1.27h-3.72c-.2.545-1.37.726-1.17 1.634-.2.907 2.15.363 2.34.907-1.17 1.996 1.96 1.996 2.74 3.811zm-230.74-7.803h-1.17v.544h1.17v-.544zm78.81.363c-.79-.182-1.57-.363-2.94-.363-.97.907 3.13.907 2.94.363zM1361 45.85c-1.57-1.452-6.85 0-7.24 1.27 3.52.182 6.06.363 7.24-1.27zm9.58.363v-.544h-1.76v.544h1.76zm83.1-.363c0 .363-.78.363-.58.907h1.17c.78-.363.78-.725-.59-.907zm-103.05 1.996c-.19-.726-.58-1.27-1.76-1.633-.19.726-2.93.181-2.34 1.27.39.545 3.13.726 4.1.363zm95.82-.726c.98.726 4.1.726 4.3-.544-1.37-.726-3.91-.182-4.3.544zm-64.92-.544c-1.57.181-3.33.363-4.3.907 1.76-.181 5.08.545 4.3-.907zm54.16 0c-1.76 1.452 2.74 1.996 4.31.907l-.98-.363.39-.544h-3.72zm-53.57 3.085v-1.27c-1.37-.182-2.35 0-2.94.363-.39.907 1.18.907 2.94.907zm231.32-.726c-2.35 0-4.11.181-4.89.907 2.54.182 4.5 0 4.89-.907zm-149.98.907h2.35v-.544h-2.35v.544zm184.98.726v-1.27h-1.76c-.19.726.2 1.27 1.76 1.27zm-112.63.908c1.17 0 1.96-.182 2.35-.545-1.37-.181-2.35 0-2.35.545zm-81.34.363c-1.57-.182-2.74-.545-3.72.363.98-.363 3.52.181 3.72-.363zm-271.41 0c0 .363-.2.726-.59.907 1.37-.181 1.37.544 2.93.363.39-1.089-.39-1.452-2.34-1.27zm249.7.544c-.2.544.59.726.59 1.27h3.52c1.17-1.633-2.55-1.996-4.11-1.27zm-59.83.545c-.79 1.089 2.93.181 1.76-.363-.4-.182-1.57.363-1.76.363zm192.41-.182c-1.76 0-2.15.726-2.94 1.27 1.57.726 3.33-.181 2.94-1.27zm9.58 2.178c.19-1.27-.59-1.996-2.94-1.815-.58.545-1.17 1.27-1.76 1.815l.4.363-.4.363c1.18-.545 3.52-.363 4.7-.726zm8.99-1.271h1.18v-.544h-1.18v.544zm-158.97 1.815c.98 0 1.56-.181 1.76-.544-.98 0-2.15-.182-1.76.544zm-47.71 1.633c.78.182 1.17.363 2.34.363.98-.544.59-1.633-.58-1.814.58.907-2.35.181-1.76 1.451zm201.99 1.089c-.98.908 3.13.726 2.93.363-1.37.182-1.37-.544-2.93-.363zm1.17 3.085h1.76v-.544h-1.76v.544zm-150.76 2.541c-2.34-1.089-1.37 1.09 0 0zm-11.34 3.811c-.98 0-.39-.726-1.76-.544-.59.544 1.37 1.27 1.76.544zm140.98 1.452c.98 0 1.57-.181 1.76-.544-.97 0-2.15-.182-1.76.544zm-139.81.544v-.907c-1.37 0-2.34 0-2.34.544.78.182.97.545 2.34.363zm128.28 1.997c1.17 0 .78.907 2.34.544.2-.907-1.95-1.633-2.34-.544zm230.93-53.173c-.78 0-2.35 0-1.17.363 1.56.363 1.95-1.27 1.17-.363zm-381.11 45.006c-.39.182.4.182 0 0z" fill="#fff"/><path d="M1945.07 91.4V79.423c-3.71 0-7.82 0-12.12.907.59-.362.78-.907.59-1.633-1.37-.181-2.35-.544-4.3-.363-.79 1.452-2.35 1.633-.59 3.085-.98.363-4.3 1.27-4.89 0h1.76c.39-1.27-2.54-1.451-1.17-2.177 2.54-1.27-4.3-2.36-4.3-4.356 2.15-1.27 6.84-1.27 8.4-2.722l-.97-.363.39-.544c-4.7.363-9.98 1.996-14.47.544-4.11.907-7.43 2.178-13.3 2.178.59-.908-.98-.908-1.17-1.633-2.15.362-6.65.181-7.24-1.27 1.76 0 4.11.18 4.3-.545l-.97-.363.39-.545c-.98-.726-5.28.182-6.06-.544.78-1.089 1.95-1.815 3.52-2.54 4.69.362 6.45-1.816 10.75-2.541.39-1.634 1.17-3.085 5.48-2.722 0-.726 0-1.452-.59-1.815-2.74.544-3.72.181-6.06.544 1.56-2.36 10.16-1.452 12.71 0 2.15-.181 6.45.544 6.06-.907-1.57 0-2.93-.182-3.72-.545 1.96-.726 2.94-1.996 6.07-2.177 0 .726 0 1.451.58 1.814h3.52c-.39 1.634 3.52 1.27 2.93 2.178.59-.907 2.74-1.089 4.31-1.633-.59-1.09-3.52-1.09-1.76-2.54-2.74-.908-6.07-1.816-10.17-1.271-2.35-.908-3.13-1.815-7.24-1.27l.39.544-.97-.182c-2.15.908-4.3-.362-7.24-.907-2.74-.544-4.1.363-3.52-1.27l-.98-.363.4-.545c-2.74 0-6.07.182-6.65-.907l-.98-.182.39-.544c-8.41 0-16.23-2.904-23.46-1.633l.97.363-3.52.181c-2.54 0-4.88-.181-7.23.363l.39-.544c-1.76-.182-3.52-.545-3.72-1.634 2.35-.363 3.72-.363 6.07 0-.59-.907 1.95-.362 1.76-1.27l-.98-.181c.59 0 .98 0 1.56-.182.39-.181.59-.544.79-.907l.39.544c2.34-.544 2.34-2.36 4.88-2.722 2.74 0 6.65 1.089 7.83.907-2.74-1.814 4.1-3.266 7.82-3.63.19-.725 0-1.27-.59-1.632.98-.363 2.54-.363 2.93-.908l-.39-.544.98-.182c-11.73-.726-24.05-1.996-33.24.908-2.35-.908-4.5-.545-6.65-.363.2-.908-1.37-.908-1.17-1.815 2.93-1.815 9.38-.181 13.29-1.815l-.97-.363.39-.544c-7.82 0-13.89 0-22.29-.363-.59-.363-.59-1.089-1.18-1.633 2.74-1.27 5.28-2.541 6.06-4.9l-.97-.182-.39-.544c-2.94.544-5.28 3.085-9 2.177 1.37-1.451 5.09-1.814 5.48-3.629-4.31.907-9.98.907-12.13 2.722-.58-.544-1.95-.363-2.93-.544 0 1.089-1.76 1.27-1.17 2.54l.97.182-.39.544c1.96.363.79-1.089 2.35-.907 2.15.544 4.11.726 6.65.363-1.96 1.996-4.89 3.266-10.17 3.448-.98 1.633 1.56 1.633 1.17 3.085-1.95.181-3.91.181-4.3 1.27 2.93 1.27 8.02-1.27 12.12.363 1.18-.363 2.35-.544 3.72-.907.78.544 3.13.181 2.93 1.27-.39 1.09-2.15 1.452-3.52 2.178-9.19-.363-14.86 2.178-21.7.907.19-.726 0-1.27-.59-1.633-5.08.363-7.82 1.996-12.71 2.54-.59-1.088-2.15-1.451-3.71-2.177-1.37.181-2.35.544-4.31.363-.78 1.996-3.91 2.722-8.99 2.54 0-.362-.2-.725-.59-.907-7.23-.181-8.21 2.904-14.47 3.448 0 .726-.39 1.27-1.17 1.634-4.5 0-13.69-1.452-17.99.544-7.63-1.27-20.73.544-28.35-.544-1.96-.363-4.5 0-7.82-.363.19-.908-1.57-.908-1.76-1.634 1.36-.544 1.36-1.814 1.17-3.085-1.96 0-5.09 1.09-6.65.363.78-1.996 4.89-1.27 7.82-1.27 3.91 0 7.82-1.452 10.17-.907-.39-1.09-2.54-1.09-1.17-2.178-1.37 0-2.35 0-2.35-.545.59-.726 2.15-.907 1.76-2.177-7.63-1.997-15.45 1.451-22.88 1.814-1.17 0-.78-.544-2.34-.544-1.37 0-2.55.726-2.94.544-1.37-.181-1.95-1.451-3.71-.907-1.57 1.27-8.8 1.27-11.54 0 1.76-2.178 9.39.544 10.75-1.633 4.31 1.452 7.04-.726 10.17-1.634l-.39-.544-.39-.544c-9.19-3.449-17.21 2.903-24.05 1.633.98-.726 3.13-1.089 6.06-.908 2.15-1.814 3.33-4.355 7.82-4.9v-1.633c-5.08 1.27-8.6 2.541-15.64 2.178-1.96.363-.98 2.36-3.52 2.54-.59 0-.98-.362-1.17-.544-.2-1.452 2.54-1.452 1.76-3.085-6.07.363-12.32 3.448-15.65 6.17 3.52-.363 5.09.545 5.48 1.815-1.17.182-2.54.182-2.35.907.59.545 1.18 1.09 2.94.908 3.12-2.54 10.36 0 15.05-.544-.39 2.903-12.71 1.088-12.71 3.085-3.32 0-11.34-.182-15.64.907l.39.544-.39.545c.39.544 3.32 0 3.71.544.98.545-.58 1.09 0 2.178.98.544 2.35.907 3.52 1.27-1.95 0-2.93.545-5.47.363-.2 2.54 4.3 2.722 6.06 4.356-.78 0-1.76 0-1.76.363l.98.363-.39.544c.97.726-2.15 1.815-2.35 2.722-2.35.182-2.54-.726-4.3-.907-2.15 1.27-6.65 1.27-8.41 2.722.78.544 1.56.907 2.35 1.27-1.76.545-6.07.363-7.82 0l.39.545-.98.181c.59.726-1.96 1.089-1.76.545.78 0 .59-.545 1.17-.545l-.39-.544.39-.545c-.98-.907-2.74.182-4.3 0-.78 1.09 1.96.182 1.17 1.27-1.37.364-1.95 0-3.71.545-1.76-.907-3.91-1.815-6.65-2.178-7.04 1.997-16.23 3.993-24.64 4.356 1.37 1.452.78 2.54-1.17 3.63-.39-.364.78-1.634-.59-1.634-.19.726-3.91.363-5.47 1.27-.59-.907-3.72-.363-4.89-.907-.2.544.98.726 0 .907-4.5.363-7.24-.907-10.76-.544.79 1.815-7.43 0-10.16 1.27 0 .726.97.908.58 1.815 4.69 0 7.82 2.36 12.13 1.633l-.4-.544.4-.544c.58-.545 1.95-.727 3.71-.545 0 .363-.98.363-1.17.544l.58.545-.58.544c.58.726 3.71-.544 4.89.363v-.363h.58c.78-1.27 2.35.363 0 .363l.39.545-.97-.182c-1.96 2.54-12.71 1.996-13.3 4.356-2.15-.545-3.32-1.452-4.89-2.178-1.37 1.815-5.28.726-6.06 2.54.19-.725-1.17-.725-2.35-.907-3.91.726-6.84 1.996-11.53 2.54.58 1.816-5.09 2.542-6.07.908 1.76.182 1.76-.544 3.52-.363 0-1.814-3.13-1.814-5.47-2.54-2.15.363-1.37 2.177-4.89 1.814.2-.544-.59-.725-.59-1.27l-.97.182.58-1.27.39.544c2.15-1.09 5.48-1.634 6.07-3.63 3.12.545 1.76-1.089 3.51-1.27 1.57.544 3.13 1.089 5.48 1.27.78-.181 0-1.27 1.17-1.27 1.37.544 4.5.181 6.65.363 1.17-.545.98-1.815 2.35-2.178 1.76 0 3.71 0 3.52-.907 0-1.09-3.72-.182-3.52-1.27 1.37-.364 3.32-.545 3.52-1.634-2.94.181-3.91-.544-6.65-.363.19-1.089-.78-1.452-2.35-1.633-1.76 1.27-4.69 3.63-8.41 3.448-1.36 0-2.34-1.089-4.3-1.27 1.76-.363 2.35-1.27 5.48-.908-1.57-1.452 1.76-1.815 1.76-3.448-2.35-.544-4.3-.181-6.06-.544 3.71-1.27 11.53-.363 10.75 2.54 6.06-.181 9.97.182 11.54-2.54-1.18-.908-4.5-.363-6.65 0-.98-.363-.59-1.634-.59-2.541-3.52-.907-6.25.544-9.58.544-1.17-.544-.98-1.633-2.93-1.633-7.04 1.815-10.37-1.815-15.65-2.722-4.69.544-8.4-1.452-13.88-1.633-4.1 1.27-12.12.544-15.05 2.54h-2.94c-2.74.726-6.65 3.086-10.17 4.356-2.54.907-3.91.726-4.3.363-1.17.726-3.13 1.27-5.47 1.633l.97.363-.39.544c4.31.726-2.54 2.36-4.3 3.086v1.27l.98-.182c-.78.363-1.37.908-1.17 1.634l-.4-.545c-2.54.908-4.69.182-7.23.908l-.98.181.39-.544h-1.17c-1.17-2.178-8.6-1.09-8.99.544-2.55-1.633-7.04-.181-12.13-.544-.39 1.089-3.13 2.54-4.89 1.27.98 0 2.15 0 1.76-.544-3.32-.545-5.28 1.996-8.99 2.177-3.52-.907-8.8-.181-9 1.633 5.28 1.452 10.56-.907 15.65.363-2.94 1.27-6.26 1.09-8.41 3.086.78.544 2.54.363 2.34 1.27-.19 1.27-3.91.544-3.51 1.815.78.544 2.15.726 1.76 1.814-.59 0-.79.182-1.18.363-2.15-.181-4.1-.544-6.65-.544l-.39.544-.39-.544c-1.56 2.178-9.38 1.815-15.06 1.815l-.97.181-.39-.544c-.79.181-1.18.363-2.35.363.78-.363-.2-1.452-.59-2.178-5.08-.726-11.14 1.996-14.47-.363l-.97-.181.39-.545h-1.76v-1.27c-1.76.181-1.57-.363-2.94-.363-.19 1.452-2.54 1.815-4.89 2.178 0-.545-.39-.726-1.17-.908 0 .545-.39.726-1.17.908-.59-.363-.59-1.09-1.76-1.27-2.74 1.088-6.26-1.634-9-.545-.39.726 2.74 1.27.59 1.815-1.76.362-.98-.726-1.17-1.27-2.94.18-6.65.18-8.41-.908 2.35.363 4.5-.182 6.65-1.27 2.54 0 3.52.907 6.06.907 1.56-.907 4.11-1.089 6.06-1.815V69.26c2.93-.181 3.32-1.633 6.65-1.633.98-1.996-2.54-1.815-3.72-2.722l-.39.544-.39-.544c-2.15.907-5.67-.544-7.23.363-1.57.181-.39-1.27-2.35-.907 3.32-1.09 6.45-.182 9.58.362l.39-.544.98-.181c.78-1.634 1.17-.908 3.52-.545l.78-.544 1.18.181c.19-.181 0-.544.58-.544 1.76-.908.78.907 2.94.544 1.56-.181 2.54-.726 4.88-.544-.19.363-.97.544-1.17.907h6.06c-2.15 0 2.54-.363 2.94-.363.19 0 .39.182.58.182.2 0 .39-.182.78-.182 1.18-.181 3.13.182 4.89 0 1.76-1.27 6.06-1.27 8.41-2.178 1.17.363 2.15.726 3.52.908.98-.363 1.17-1.089 2.35-1.27 0 .726.78 1.27 2.34 1.27 1.37-.545 3.33-.726 6.07-.544l.39-.545.97.181c2.55-.907 7.83-.362 9-1.814 2.93.181 5.08-.182 7.23-.363l-.39-.545.98-.363c-2.35-.544-3.71-1.451-6.65-.907-.39.907-.19.726-1.76 1.27-1.95 0-3.52-.544-6.06-.363 0-.725 1.17-.907 0-1.633-.39 0-1.17 0-1.17-.363-3.52.726-6.46.545-6.65 2.178-3.33-1.27-4.69-3.448-9-3.993 3.13-.362 4.31-.544 6.65-.544-2.15 1.633 8.61 1.815 8.41-.544-2.15-.182-5.87-.908-7.82-.363-.2-.908-4.11-.182-4.89-.908 1.37-1.089 3.13-1.815 5.48-2.54l-.4-.545 1.37-.181c-.97-2.541 5.48-1.27 7.24-2.541l-.39-.544.39-.545c-2.93-.544-6.26-1.633-9.58-.544-8.02-2.904-21.51-1.09-26.01 2.177-3.32-.181-3.91.908-6.65.908l.39.544-.39.545c-.19.726 2.74-.182 1.76.907l.98.363-.39.544c4.69-.363 6.06.545 10.17-.544 0 1.089-2.94 1.996-.59 2.54h-2.93l-.79.545c-.39-.544-1.56-1.089-2.54-.907l.2-.545c-3.13-.181-1.57 1.815-3.52 2.178-2.54 0-4.3.363-6.06.544.19 1.815 3.13.545 6.64.908 0 1.089 1.96 1.089 1.76 2.178-.58.362-.58 1.088-1.76 1.27-4.69-.545-10.16-.182-14.47 0 1.57-.182 1.37-1.452 0-1.815-2.93.181-5.47 2.178-8.99.907-.78-1.088 1.96-.181 1.17-1.27l-.97-.363.39-.544c-2.15-.182-3.33.363-4.89.544-.39 1.27 3.32 1.996 1.17 3.085-1.37-.907-3.52-1.452-6.65-1.633-.19.544-.19 1.27-1.76 1.27-.58 0-.97-.363-1.17-.544.59-.545 1.96-.726 1.76-1.633-1.76-.726-2.74-.363-5.48-.363.4-1.09-2.34-.726-2.34-1.634 3.91-.726 7.62-3.63 12.12-2.177l.98.181c.19.182.2.544.39.726l-.78.363c0 .363.19.726.59.907 3.32.182 5.27-.181 5.47-1.633-1.17-.726-3.32.544-4.89-.363 2.93-.181 6.26-1.815 10.76-2.178 1.37.545 5.47 1.09 7.23.545-1.37-1.27-4.11-1.996-6.65-2.722.2 1.27-2.15.726-2.93.363-.78-1.27 1.96-.545 1.17-1.815-1.76-.363-2.54.181-5.47 0l.39.544-.98.363c-1.37 1.27-5.28.545-7.82.545-.78 0-1.76.544-2.35.544-3.71.182-7.04-.363-10.16-.363-1.76 0-4.31 1.089-5.48 0-.2-.726 2.35-.181 1.76-1.27l-.39-.363.39-.363c-3.32 0-5.67-1.996-7.82-.544 0-.545-.2-.908-.59-1.27-4.89 0-4.5 2.54-6.65 3.992-.97-.363-2.93-.182-3.71-.545 1.17 0 1.37-.363 1.17-.907-3.32-1.633-9.19-.908-12.12.363 0-.545-1.96-.182-1.76-.908 1.76-.363 1.76-1.814 5.47-1.27-.39-1.27.98-1.633 2.94-1.633l-.39-.545.97-.181v-.545l-.97-.362.39-.545c-5.87.726-10.76-1.815-12.13-3.448 2.74 0 4.11.726 5.48 1.633 4.3.182 7.82-.544 10.17.363.58-.726 2.93-.544 2.93-1.633-1.37-.181-3.33-.181-3.52-.907 3.32-.726 7.04-1.27 10.17-2.178 1.37-.182 1.37.544 2.93.363 1.17-1.452-2.35-1.996-3.52-1.27-7.43 0-16.42-1.09-23.46.362-.79-.544-2.35-.544-2.94-.907-1.76.181-2.54.907-5.47.544-.59-.907-1.18-1.814-2.35-2.54-7.43.907-19.75 3.448-27.18.544-.39.908 1.76 1.997 0 2.54-11.14-1.995-20.33 1.271-28.94 1.271-1.56 1.452-2.54 1.09-6.06 1.27.2 1.09 1.37 1.815 1.76 2.723-2.35-.545-.2 1.27-1.76 1.27-5.48.181-7.63 3.085-13.3 3.448-4.1.182-8.41-1.815-13.88-1.27-2.74.363-4.69 1.089-7.82.363l-.39.544-.98-.181c-.78.363-.59 1.089-.59 1.815.78.362 1.76.544 2.35.907-.98.544-.78 1.633-1.76 2.178l.39.363c-1.56-.182-3.52.544-2.74 1.451l-1.17-.181c0 .726-.78 2.178-3.72 1.27-.78.545-.78 1.27-1.76 1.633-3.32.363-5.08-1.27-7.82-.362-.19-.363-.78-.545-.58-1.27-5.28 1.451-7.83-.727-12.71-1.271-.2 1.27-2.55 1.996.58 2.54-2.93-.181-3.32.908-6.06.908-.19-.907 1.37-.907 1.17-1.815-2.54-.363-6.06-1.815-8.99-.907.59 0 1.56 1.452.59 1.27-4.7.181-6.07-1.633-10.17-.363.58 0 .78.544 0 .544l-.98.182c-.2-.363-.39-.544-.78-.726-.59 0-1.57-.181-2.35-.181l.39-.545c-5.08-.181-14.27.182-17.99 1.634-.97 0-.39-.726-1.76-.545-1.56 0-.78 1.27-2.34 1.27-.98-1.088-3.33-1.451-2.94-3.085 2.74.363 3.91-.363 5.48-1.27-3.13-.907-9.97-1.27-13.3.363-1.76-.363-2.93-1.27-5.47-.544-.39 1.088 2.15.544 2.34 1.27-5.67 2.359-12.51 1.996-17.4 3.992-7.04.182-12.32-1.814-19.36-2.54 0-.545-1.56-.182-1.17-.908 2.54-1.451 5.86-3.266 11.54-2.177 1.36-.545 6.06-1.815 7.23-.545-1.76.907-.59 1.815 0 3.085l.98-.181.39.544c1.76.182 1.95 1.089 4.3.907.39-1.451 5.48-3.085 2.93-3.992 3.72.544 3.52-1.089 6.07-1.27 6.45.181 9.77-1.634 16.23-.545.19-1.089 2.15-1.27 3.52-1.814-.98-1.09-.2-3.086-2.94-3.086-.19 1.997-2.54 2.723-6.06 3.086-3.52-1.09-4.89-.182-8.99-1.27-3.52.907-5.87.907-8.41 2.54-3.52-.907-6.65-3.085-11.54-1.633l-.39.544c-.2-.181-.2-.363-.39-.544-2.93-1.09-6.65-.726-9.97-.726l9.38 1.089c-.98 2.722-8.6.726-10.75-.363-.78.363-.2 1.451-1.76 1.633-5.87-2.54-16.43-1.633-24.05-.544v-2.723c-3.52-.544-3.52.363-6.07.908.4.363 2.35 0 2.35.544-.19.363-.78.545-.59 1.27-.78-.362-2.93-.362-3.71 0-1.57.726.98.545.59 1.634-4.11 1.452-10.56-1.09-6.07-2.722.98.907 3.52 0 4.31-.363-.79-1.452-1.76-2.178-1.76-3.448-2.55.363-5.87-.726-8.41-.363.58 1.089 2.15 1.814 3.52 2.54-1.37.182 0 1.634-1.76 1.634-6.85-1.09-11.93 1.451-16.82-.545 2.54-.544 5.08 0 8.41-.544-1.37-1.27 2.35-1.27 1.17-3.448-3.71.181-7.23-.908-10.17 0-.19.544.79.544 1.18.907-4.89 0-9.78-.363-14.472.363-1.565-.181-2.738-1.633-4.302-.907-1.565.363-1.173 1.814-2.933 2.177-3.716.363-4.107-.907-5.476-1.814-14.469.907-29.33-1.27-42.627-.363V111h1002.73c-1.18-.363-2.15-.544-3.72-.363 1.96-.907 3.91-.907 6.06-.726v-9.074c-4.1.545-8.21-1.633-12.12.363-.59-.544-1.37-.907-1.76-1.633 3.52.182 4.69-.907 7.82-1.633 2.94.181 4.11-.545 6.06-.908V93.76c-1.95 0-3.91.181-4.88-.363v-1.27c1.17.544 3.12-.364 4.88-.727zM941.174 35.687l.391-.544h-.978v1.815c.587-.363 1.173-.545 1.564-.908l-.977-.363z" fill="#fff"/><path d="M1198.31 43.49c-1.57-.362-4.69-.544-5.48.364.98.363 1.96.907 4.3.544l-.39-.544.98.181c-.19-.363.39-.363.59-.544zm233.08 4.9l-.98-.362.4-.545c-2.74-.363-5.28.182-7.83.545-.78 0-1.17-.545-1.17.363l.98.363-.39.544c3.13.363 7.23-.363 8.99-.907zm26.6 9.619c-1.37-.907-4.5-1.089-6.65-1.633-.59.363-.59 1.089-1.76 1.27l.39.544-.98.363c2.74 1.27 7.24.908 9-.544zm-77.24 9.618l.97-.181c-.39.363-.58.726-.39 1.089h-.58c-2.54-.363-3.33-.182-5.48.363-.19 1.633 1.96 2.359 4.3 2.722 2.35-.545 6.46-2.36 8.41-1.27 0 .362-.98.362-1.17.544 3.52-.182 8.02 1.089 10.17-.363l-.39-.544-.4-.545c-.97-1.27 2.94 0 1.18 0l.39.545-.39.544c5.28 1.815 7.43-.544 10.75-1.633 2.15-.726 4.89-.363 4.89-1.634-.98 0-2.15.182-2.35-.363 2.16-.181 2.94-1.451 5.48-.544.2-.363.78-.544.59-1.27l-.39-.545.39-.544c-3.91-.182-12.91-.545-15.06 1.27-1.17-.363-4.3.182-3.52-1.27-.98 1.089-3.32-.182-4.89 0-.98.181-2.74 1.815-3.52.363.2.726-.19 1.089-1.17 1.27-1.57-.907-4.11-1.27-6.06-1.815-.59.726-2.15.726-4.3.545l-.4.544-.97.182c.97 1.27 4.69.725 3.91 2.54zm42.82-3.447c-1.17 0-3.91-.727-4.89 0l.39.544-.39.544c1.37.363 5.09 0 4.89-1.089zm-33.05 11.07c.2-.908-.78-1.271-1.76-1.634l-.39.544-.97-.181c-.59 0-.98.363-1.18.544l.98.182-.39.544c1.37.182 2.15.363 3.71 0zm11.35.362c-.2.907.78 1.27 1.17 1.815l.98-.182.39.545c1.56-.182 2.34-.908 4.3-.908.59-.907.19-.907-.59-1.633l-.98-.181.4-.545c-2.35.182-2.55 1.27-5.67 1.09zm10.95.908v-1.815c-1.57 0-1.18-.545-2.35 0l.39.544-.39.545c-.2.544 1.17.544 2.35.725zm8.4-1.815l-1.17.181-.59-.544c-.97-.182-1.95 1.088-.58 1.27l.58-.544.59.544c1.17.181 2.74-.907 1.17-.907zm2.35-1.271c-1.56-1.27-5.08-.362-6.06.545h1.76l.98-.363.97.363c.98 0 2.94.363 2.35-.544zm40.48-16.695l.39.544-.98.181c-1.37 0 0 1.09.59 1.27l.97-.18-.39.544c.39 0 1.18 0 1.18-.363l-.79-.726.2-.907c-.2-.363-.59-.363-1.17-.363zm3.52-2.179c-4.31-1.088-8.8.182-11.54 1.634 2.93 0 4.89.363 7.23.545l-.39-.545.98-.181c.59-.908 3.72-.363 3.72-1.452zm174.22-16.332c-.39 1.633 2.15 1.996 3.52 2.722.78-.726 3.13-.544 3.52-1.633l-.98-.363.4-.545c-2.55.182-3.52-.544-6.46-.181zm177.75-8.348c1.76.363 4.1.363 4.3-.907l-.39-.363.39-.363c-1.56-.545-4.5.181-4.3 1.633zm-77.04 1.27c.97-.181 2.54-.181 2.93-.544-1.17-.182-4.3.181-2.93.544zm24.63 8.348c.39.363-2.34.726-.58.908 0-.363 2.54-.726.58-.908zm-718.41.545c0 .544-1.76.181-1.76.544.59.726 3.13-.363 1.76-.544zm73.52 8.711c8.41.907 8.02-3.267 13.3-3.63V43.31c2.74 0 4.3-.363 5.47 0-1.56 2.178 6.26 1.452 8.41 1.27-1.17 1.09.79.908 1.18 1.815 2.93.182 3.91-.544 6.64-.362.2-.545-.19-1.09.59-1.27 2.35 1.27 9.19.362 10.17-.908-1.76-1.633-5.48-1.452-8.41-1.27-.39.907 1.17.544 1.17 1.27-1.36.181-2.54.363-3.52.544.2-.907-1.56-.907-1.76-1.633-2.15 0-2.15.907-4.3.907-.78-.726-2.93-.726-3.52-1.633.79-1.27 3.33-1.633 4.89-2.54 2.35.544 3.72 1.633 4.89 2.721 5.08-1.814 15.64 1.27 18.77-.544 1.96 1.27 5.48 1.27 9 .544l-.39-.544c1.76.181 4.1.363 5.47-.544l-.39.544c1.76.544 6.06.363 6.65-.544-1.18-.908-4.3-1.997-6.65-1.27l.39.544-1.76-.545.98.182c.39-.545 1.76-.726 2.35-1.27 4.3.725 10.55.362 15.05 1.633 1.76-.363 3.72-.726 4.3-1.815-.19-.726-2.93-.181-2.34-1.27.39 0 .78 0 .58-.363l-.39-.545.98-.181c-2.93-1.633-12.91.544-15.06-1.633 3.33-1.09 8.22-1.815 10.76-2.541-.39 0-1.17 0-1.17-.363 1.76-.182 2.93-.726 4.3-1.27.39-1.09-2.54-.363-1.76-1.634 1.95.726 3.13.182 4.89.545l.39-.545.39-.544c-.2-.363 1.76-1.089 1.76-.363v.544l.98.182-.4.544c1.18 0 6.65-.363 8.41-.907l-.39-.545c1.37.182 2.54-.181 3.52-.544 0-.363 0-.545-.19-.907-1.37-.363-2.74-.182-4.11 0l.39-.545c-4.89-1.633-11.93-.907-15.06-1.633l-.39.544c-.19-.363-.39-.544-.58-.907-.39-.363-.79-.726-1.18-.908l.98-.181c.59-1.27 2.93-1.633 4.3-2.54-6.65.18-14.08-.182-15.64-3.993-3.13-.182-6.45 2.178-8.41.544 3.13-1.996 7.82-3.266 9-6.17-.79 0-.79-.363-1.76-.363-5.48 2.722-10.37 5.807-15.65 8.711-.19.908 1.57.726 1.76 1.633-1.56 3.085-8.99 1.27-11.53 3.993-6.26.181-8.8 2.359-10.17 4.9 1.17.726 2.93 1.27 3.71 2.177-3.13.363-4.49 1.634-6.65 2.541-2.34-.726-4.3.181-6.64-.363.39.907-1.57.544-1.18 1.633-.19.726 2.35.182 1.76 1.27-.97 0-1.95 0-2.34.364-.39 1.089 1.37 1.27 1.17 2.177-2.15-.544-4.3 1.09-5.48 1.815-3.51.363-4.3-.907-5.47-1.815.78 0 1.37-.181 1.76-.362l-.39-.545.98-.363c0-.726-2.15-.181-2.94-.363-.39-.907 2.15-.907.59-1.633-2.35-.363-1.76.726-3.72.544 1.37-1.27 4.5-1.451 5.48-3.085h.59c0 .908 2.15.907 2.93.545.19-.726-.78-1.09-2.35-.908l.39.545c-.78-.363-1.56-.182-2.15-.182v.545c-4.3-1.452-10.95.726-14.47 1.633 2.54.544 4.7 1.452 6.65 2.54-2.54 1.27-8.02 1.09-9.58 2.723 1.76 2.177-1.56 4.718 1.17 7.985z" fill="#fff"/><path d="M1206.72 23.891l-.39.545.97.181c-.19-.363 0-.726-.58-.726zm6.64 8.711c.4-.181 1.37-1.452 0-1.633l-.97-.182-.39-.544c-1.37.907-1.18 2.36 1.36 2.36zm231.33 1.815c-5.48 1.27-10.17 2.904-17.4 3.085l.39.544-.39.545c2.34 1.089 8.01 0 12.12 0 2.15 0 3.91 1.089 4.89 0-.78.907.98.726 1.17 1.27 6.06.363 14.86 1.27 19.95-.363 14.27 2.541 24.05-1.814 38.52-2.54.78-.908.19-1.634-1.18-2.178 2.15.181 3.33-.363 4.89-.544.59-1.452-3.32-.726-2.93-2.178 1.37.181 2.35 0 2.93-.363l-.39-.545.39-.544c-4.1-.907-9.38-1.452-14.47-1.815 2.15-.726 1.76-1.814 1.18-3.448-6.26-2.54-15.45.363-21.12 1.815-2.35-.726-6.06-.726-9-1.27-8.41 1.27-12.12 4.9-19.36 6.714l.4.545-.98.363c-.2.726.39.726.39.907zm72.35-3.992c-1.57-.908-6.26-.726-7.82 0l.39.544-.39.544c2.34.726 7.23.545 7.82-1.088zm-235.43-29.4l6.26-.544c-1.96 0-4.11 0-6.26.544zm417.67 17.241c0 .363 0 .907.2 1.27l-.2-1.27zm.2 1.27l.19 2.178c.2-.726 0-1.452-.19-2.178zm-349.63 0c1.17 0 2.35-.363 3.52-.363l-3.52.363zm-105.59 5.989c.78 0 1.56 0 2.35-.182l-2.35.182zm561.2 4.718l2.54.907c-.59-.362-1.37-.726-2.54-.907zm-266.91-.726c.58 0 1.17-.181 1.76-.363l-1.76.363zm89.75 9.437l1.37.363c-.39-.182-.78-.363-1.37-.363zm3.52.726l-2.15-.545c.59.363 1.17.726 2.15.545zm-99.33-7.44l6.06-.364c-2.15 0-4.11 0-6.06.363zm-291.95 1.27l5.48-1.452c-2.35 0-3.52.907-5.48 1.452zm-180.09 8.53l-1.76.18c.59 0 1.18-.18 1.76-.18zm-77.627-4.356c1.174.363 2.347.363 3.715.363l-3.715-.363zm3.52.363l7.235.907c-1.955-.907-4.693-.726-7.235-.907zm362.337-.363l1.76-.182c-.59.182-1.18.182-1.76.182zm-258.7 3.448c4.5.181 8.8.363 13.3.363l-13.3-.363zm529.72 2.903l2.54-.726c-1.17-.181-1.76.545-2.54.726zm-157.8 1.634c-.98-.182-1.96.362-2.94.544l2.94-.544zm-22.88 1.451c.78 0 1.56-.181 2.34-.181l-2.34.181zm37.35 2.722l2.93.908c-.78-.545-1.96-.726-2.93-.908zm85.06 2.36l-2.35.181c.98.182 1.56 0 2.35-.181zm-362.93-7.441l-1.76-.907c.59.363.98.726 1.76.907zm118.7-2.359l2.54-.363c-.78.181-1.76.182-2.54.363zm6.06 1.815l-6.06-.545c1.95.363 3.91.908 6.06.545zm18.97 2.54l-2.16.363c.98.182 1.37-.181 2.16-.363zm23.85 9.074l3.52.182c-1.17-.182-2.35-.545-3.52-.182zm22.88-6.17l-3.52.363c1.17.181 2.35 0 3.52-.363zm47.71-5.081l-8.41.907c2.74-.181 6.46.544 8.41-.907zm-13.88 4.174h-2.35c.59 0 1.57.181 2.35 0zm24.25 9.436h2.93c-1.17-.181-1.96 0-2.93 0zm-.01 0h-3.71c1.17.363 2.54.182 3.71 0zm-20.72 2.722c.58.363.98.726 1.37.908l-1.37-.908zm-46.54 2.178c.19.182.39.363.78.545l-.78-.545zm-5.28 1.27l3.52.908c-.98-.544-1.96-.907-3.52-.907zm42.24.545l2.34-.363c-.78.182-1.56.182-2.34.363zm-31.88 10.525c.98-.18 1.37-.362 2.35-.544l-2.35.545zm3.52-1.27l-.19-1.088c-.2.362-.2.725.19 1.088zm18.77.908h3.72c-1.37 0-2.74-.182-3.72 0zm12.52 1.633c0-.363-.2-.907-.39-1.633l.39 1.633zm.39-1.815c.2-.363.2-.726.2-1.27l-.2 1.27zm43.02-10.526l1.56-.907c-.78.182-1.17.545-1.56.907zm13.3-6.895l-11.35.544c3.92-.182 7.63-.363 11.35-.544zm-12.91 1.995c.39-.18.78-.544 1.56-1.088l-4.49 1.089c.78.181 1.95.181 2.93 0zm.78-2.358c-.39-.363-.78-.545-1.17-.908l1.17.908zm-238.17-30.125l10.96-.726c-3.72 0-7.44.181-10.96.726z" fill="#fff"/><path d="M1212.97 29.699l-.58 1.27c.58-.545.78-.907.58-1.27zm0 6.533l-4.3.363c1.37.181 3.13 0 4.3-.363zm294.1-5.082c.78-.181 1.56-.181 2.34-.363l-2.34.363zm-79.59 6.897c-.98.181-1.95.181-2.74.544l2.74-.544zm17.6-4.537c-.78-.182-1.56 0-2.35-.182l2.35.182z" fill="#fff"/></svg>