<svg width="1820" height="130" fill="none" xmlns="http://www.w3.org/2000/svg"><path d="M1080.75 128.651l-1.2.239.48.716c-5.52.955-21.85.239-23.06-2.864 6.97-.478 17.54.477 23.78 1.909zm521.13-13.844c-6.24 2.148-16.33 5.49-25.21 4.535 2.16-2.626 7.92-3.342 14.17-3.58 1.92-1.433 9.84-4.297 11.04-.955zm-236.07-9.787c6.73 1.671 1.44 5.49.72 8.593-1.92.955-4.08 1.91-7.44 2.149-3.6-4.058 1.44-9.31 6.72-10.742zm-353.98 8.832c1.68 0 2.88 0 2.88.716-1.2 0-3.6.477-2.88-.716zm581.17-3.103c-.96 0-.96.477-2.16.477-2.88-1.193-3.13-4.535.72-5.251l1.2.239 1.2-.239c-.48 1.432.48 3.819-.96 4.774zm-522.58-4.535c1.68 0 2.89 0 2.89.716-.73.716-3.13.477-2.89-.716zm-128.719 0h-1.441v-.716h1.441v.716zm95.339-3.581c3.6.239 5.05 1.671 6.73 2.865-4.09.954-9.13-.478-6.73-2.865zm24.5 2.387c1.92 0 3.6 0 3.6.716-1.2-.238-4.32.716-3.6-.716zm27.38 0c-.97.716-3.85.239-5.29.716-1.2-1.671 5.29-2.387 5.29-.716zm608.55.716c-.97-.238-3.85.478-3.61-.477.96.239 3.61-.239 3.61.477zm-679.64-4.774c.24 1.432-2.16 1.194-2.88 2.149 1.68 1.67 6-.955 8.88.477-.72 2.387-7.2 2.148-11.04 1.671-.48-2.387-5.05-2.387-6.01-4.535 4.09-1.194 7.21-.239 11.05.238zm757.93 3.581h-1.45v-.716h1.45v.716zm-305-.716c-1.68-1.194-6.48-.716-6-3.342 3.84-1.671 10.32 1.91 6 3.342zm109.03-.478c-.96-1.432 3.6-.238 2.16.478-.72.238-2.16-.239-2.16-.478zm-268.01-2.387c-2.4.239-3.36-.238-2.88-1.67 1.68.238 3.36.238 2.88 1.67zm-307.16-.954c-.96.238-1.92.477-3.6.477-.96-1.432 3.36-1.671 3.6-.477zm591.26-3.581c0 .955.24 1.91-1.44 2.148-.24-.477-1.2-.716-1.44-1.193 1.92.239 1.44-.955 2.88-.955zm-351.58-1.193c5.28-.24 11.52-1.194 14.88.477-6.48 1.432-20.89 2.864-24.49.477 1.92-1.67 6.24-.716 9.61-.954zm-458.218-1.671c0 1.193-1.682 1.432-2.882 2.148-.481-1.671 1.921-1.432 2.882-2.148zm305.718-2.865c.24 1.433 3.36 1.194 6 1.194 1.68 1.193.96 1.432.72 3.342-4.32 0-4.8-2.149-8.88-2.149.48-.954 1.44-1.67 2.16-2.387zm341.98 1.194c.72.955-2.41 1.91-2.89.716 1.2 0 .72-1.194 2.89-.716zm-13.21.478c1.2-.24 1.92-.717 2.88-.717.72.955-2.4 1.671-2.88.716zm302.35-2.15l.96.478v1.671c-8.4.239-17.77.239-25.93 0-1.93 0-6.25.478-6.73-1.193 10.57-1.433 20.89 0 31.94-1.671l-.24.716zm13.69-3.102c0 1.432-7.2 2.148-10.33 2.864v-.716h-1.44c1.2-2.864 12.01-5.251 11.77-2.148zm-353.03 4.774c-1.68-.239-1.68.716-3.6.477 0-.477-.24-.955-.72-1.193.96-.716 4.8-.716 4.32.716zm12.49-1.194l-1.2.478.48.716c-2.16.238-2.16-.716-4.32-.478-.24-1.67 3.6-1.67 5.04-.716zm-6.72-16.948c.96-.238 3.84.478 3.6-.477-.24-.477-.96-.716-.72-1.67-3.84.238-6.72 0-8.17-1.194 4.33-.716 5.29-3.103 7.45-4.774 7.44-2.387 11.77 1.432 17.77 1.67 7.21.24 10.09-1.67 16.33-1.67 5.76.239 8.65-.239 12.49.477 7.2-5.49 21.85-1.91 34.82-2.387 2.4 3.82 6.01 6.684 15.61 6.445 0 1.91-2.16 2.626-1.44 4.774 4.08 1.194 5.28-.716 11.05-.477 1.44.954 3.12 1.91 6 2.148l-.48.716 1.2.239c0 .477.48.477.72.716l-.48.716 1.2.239c0 .716-2.4.239-2.88.716-2.4-1.194-9.85-3.58-13.21-1.671 0 3.103 5.77 2.864 6.73 5.251-2.4.955-4.81-.477-8.17 0-.24.239-.72.478-1.44.478-.48 2.625-2.88 5.251-9.61 6.445-2.16.477-5.28 0-8.16.477-1.2.239-1.68.955-2.16 1.193-6.01 1.433-10.81-.954-13.21-2.148-1.44.716-2.64 1.432-5.28 1.671-1.93-.955-5.29-.955-8.89-.716-3.36-.955-4.56-3.103-9.61-3.342-3.84-5.013-10.56-8.354-23.05-8.593-1.92-.477-2.4-1.67-3.6-2.387-4.57-.716-12.01 0-14.89-1.67-5.29-.24-10.57-.478-13.21-2.15 5.04-.954 8.64-.715 13.69.956zm126.56 1.91c-.24 1.432 2.16 1.194 2.88 2.148-1.2 1.433-7.68 1.91-9.61.478l.48-.478.49-.477c1.44-.955 3.36-1.432 5.76-1.67zm-448.37 13.367c3.12-1.193 5.77.716 6.01 2.387-2.89 1.194-6.01-.477-6.01-2.387zm338.86 2.865h-1.44v-.716h1.44v.716zm-139.05-.716c-4.8.477-1.68-1.194 0 0zm136.89-2.865c1.68-1.432 7.68-.477 8.88.716-1.92.478-9.36 1.91-9.6-.477l-1.2-.239c.72 0 1.44.239 2.16.478l-.24-.478zm207.25 1.671c-1.44-.239-4.56.478-3.6-.716 1.68-.239 2.88 0 3.6.716zm14.89-.477c-1.68.239-2.88.716-5.28.477-.24-1.91 4.32-1.193 5.28-.477zm-617.44 0c-4.8.477-1.68-1.194 0 0zm372.48-2.865c2.4 0 5.53-.238 6.73.478l-.48.716-.48.716c-.72.716-1.44 1.432-3.61 1.193-.72-1.193-2.16-1.91-2.16-3.103zm257.45 2.387c-2.64-.238-5.77 1.194-6.73-.477 2.16-.477 5.05-.239 6.73.477zm-258.41-1.432c-1.68 0-2.88 0-2.88-.716 1.68-.239 2.88 0 2.88.716zm-16.09-2.148c.72 0 1.2-.478 1.44-.716 2.16 1.193 8.65.239 8.89 2.387-4.08-.239-10.09.716-10.33-1.671zm-112.63-1.194c2.88 0 5.28 0 6.72.716l-.48.717.48.716c-2.64.954-8.16.477-6.72-2.149zm-445.486-5.728c1.441-1.194 1.441-2.626 3.602-2.865-1.681 0-2.882 0-2.882-.716l1.201-.239-.48-.716c4.323.24 6.724-.477 10.326-.477 1.201 1.432-3.362 2.864-2.161 4.535-8.645 1.194-10.327 5.968-17.051 8.116-2.882-2.387 4.083-5.251 7.445-7.638zm199.806 6.205c1.2-.715 5.05-.715 4.57.717-2.17 0-4.57.239-4.57-.716zm522.58-.954c1.44 2.387-6.97 2.148-7.45.716 1.2-.716 6.01-.955 7.45-.716zm-342.7-.716h2.88c-1.44.955 1.44 1.91-1.44 2.148.72-1.432-1.2-1.432-1.44-2.148zm199.81 1.67c-.49-1.67 3.6-1.67 2.88 0-1.92 0-1.44.717-2.88 0zm-673.155-4.296l1.2.239c-.96 1.432-4.323 1.432-7.445 2.148-4.803.955-10.566 2.148-16.33 1.194 2.642-4.058 14.89-2.865 23.055-4.058l-.48.477zm51.392 3.819c-1.681 0-2.882 0-2.882-.716 1.681-.238 2.642 0 2.882.716zm400.333-.716c1.2 0 3.61-.477 2.89.716-1.45 0-2.65 0-2.89-.716z" fill="#fff"/><path d="M804.573 76.615c.48 1.432-1.441 1.67-3.602 1.67 0-1.192.96-2.147 3.602-1.67zm816.527 1.193c-.72-1.67 1.68-1.67 4.32-1.67.72 1.67-2.64 2.387-4.32 1.67zm-834.298-1.193c-.241.955-3.603.239-5.284.477-.96-1.67 5.764-2.148 5.284-.477zM1527.2 73.99c3.36-.24 2.4 2.148 0 2.148-1.45-.716-.24-.955 0-2.149zm-695.249.477c.24.954-.961 1.432-2.882 1.193-.721-1.193.96-1.193 2.882-1.193zm462.059 0h2.16v1.193h-1.44c0-.477-.96-.477-.72-1.193zm-494.48.477c-1.681 0-2.882 0-2.882-.716.961-.716 3.122-.477 2.882.716zm722.38-.477c-.96-.478-.96-1.432.72-1.671 0 .716.24 1.67-.72 1.67zm12.73-1.671v1.193h-1.44c0-.477-.96-.477-.72-1.193h2.16zm-396.97.954c-.24-1.193.96-1.67 2.16-2.148.24.716 1.68.478 2.88.478.24 1.91-3.12.239-5.04 1.67zm7.44 0c0-.477-.24-.954-.72-1.193h2.16c.24.716-.48.955-1.44 1.194zm-347.021-1.193c1.201.239 3.122.239 3.602.716-1.921 0-3.602 0-3.602-.716zm48.031-.955c1.921 0 3.602 0 3.602.716-1.681.478-3.362.717-3.602-.716zm675.79-.716c1.44-2.148 10.33-1.432 10.33.716-3.6.955-7.93.716-10.33-.716zm-316.76-.955c0 .955-1.2 1.194-1.44 2.149-2.88.238-4.56-.239-5.28-1.194 2.64-.238 3.6-1.193 6.72-.954zm93.18 1.194c1.2 0 1.92.239 2.16.716-1.2.239-1.68 0-2.16-.716zm-146.49.477h-1.45v-.716h1.45v.716zm167.38 0c-1.44-.238-5.04.716-4.32-.716.48-.955 5.28-.716 4.32.716zm175.31-10.98c3.61.716 3.61-.477 6.73-.477 4.56 1.67 7.68 4.297 13.21 5.251.48 2.865-3.12 3.342-4.57 5.252-6.96 1.432-11.28.238-15.61-1.671h-4.56c-.24-.716-1.68-.955-1.44-2.148-.24-1.194 2.64-.478 2.88-1.194-1.44-2.626 2.4-2.626 3.36-5.013zm-283.38 10.264h-1.44v-.716h1.44v.716zm96.79-.477c-.97.239-1.93.477-3.61.477-1.2-1.193 3.85-1.193 3.61-.477zm-130.89-.716c-1.92 1.91-8.4 0-8.88-1.671 4.32-.239 7.44-.478 8.88 1.67zm11.77-.478v.716h-2.16v-.716h2.16zm102.06.478c0-.478-.96-.478-.72-1.194h1.45c.96.478.96.955-.73 1.194zm-126.56-2.626c-.24.955-.72 1.671-2.16 2.148-.24-.954-3.6-.238-2.88-1.67.48-.717 3.84-.955 5.04-.478zm117.68.955c1.2-.955 5.04-.955 5.28.716-1.68.955-4.8.239-5.28-.716zm-79.73.716c-1.92-.239-4.08-.477-5.29-1.194 2.17.24 6.25-.716 5.29 1.194zm66.52 0c-2.16-1.91 3.36-2.626 5.28-1.194l-1.2.478.48.716h-4.56zm-65.8-4.058v1.67c-1.68.24-2.88 0-3.6-.476-.48-1.194 1.44-1.194 3.6-1.194zm284.1.955c-2.88 0-5.04-.239-6-1.194 3.12-.238 5.52 0 6 1.194zm-184.2-1.193h2.88v.716h-2.88v-.716zm227.19-.955v1.67h-2.16c-.24-.954.24-1.67 2.16-1.67zm-138.33-1.194c1.44 0 2.4.239 2.88.716-1.68.239-2.88 0-2.88-.716zm-99.9-.477c-1.93.238-3.37.716-4.57-.478 1.2.478 4.33-.238 4.57.478zm-333.338 0c0-.478-.24-.955-.72-1.194 1.681.239 1.681-.716 3.602-.477.48 1.432-.48 1.91-2.882 1.67zm306.678-.716c-.24-.717.72-.955.72-1.671h4.32c1.44 2.148-3.12 2.625-5.04 1.67zm-73.49-.716c-.96-1.433 3.6-.24 2.16.477-.48.239-1.92-.477-2.16-.477zm236.31.238c-2.16 0-2.64-.955-3.6-1.67 1.92-.956 4.08.238 3.6 1.67zm11.77-2.864c.24 1.67-.72 2.625-3.6 2.387-.72-.716-1.44-1.671-2.16-2.387l.48-.477-.48-.478c1.44.716 4.32.477 5.76.955zm11.05 1.671h1.44v.716h-1.44v-.716zm-195.25-2.387c1.2 0 1.92.238 2.16.716-1.2 0-2.64.238-2.16-.716zm-58.6-2.148c.97-.24 1.45-.478 2.89-.478 1.2.716.72 2.148-.72 2.387.72-1.193-2.89-.239-2.17-1.91zm248.08-1.433c-1.2-1.193 3.85-.955 3.61-.477-1.69-.239-1.69.716-3.61.477zm1.44-4.058h2.17v.717h-2.17v-.717zm-185.15-3.341c-2.89 1.432-1.69-1.432 0 0zm-13.93-5.013c-1.2 0-.48.955-2.16.716-.73-.716 1.68-1.67 2.16-.716zm173.15-1.909c1.2 0 1.92.238 2.16.715-1.2 0-2.64.24-2.16-.716zm-171.71-.717v1.194c-1.68 0-2.88 0-2.88-.716.96-.239 1.2-.717 2.88-.478zm157.54-2.625c1.44 0 .96-1.194 2.88-.717.24 1.194-2.4 2.149-2.88.717zm283.62 69.938c-.96 0-2.88 0-1.44-.477 1.92-.478 2.4 1.671 1.44.477zM1221.96 46.54c-.48-.24.48-.24 0 0z" fill="#fff"/><path d="M1894.39 9.78v15.754c-4.56 0-9.61 0-14.89-1.194.72.477.96 1.194.72 2.148-1.68.239-2.88.716-5.28.478-.96-1.91-2.88-2.149-.72-4.058-1.2-.478-5.29-1.671-6.01 0h2.17c.48 1.67-3.13 1.91-1.45 2.864 3.13 1.671-5.28 3.103-5.28 5.729 2.64 1.67 8.41 1.67 10.33 3.58l-1.2.478.48.716c-5.77-.477-12.25-2.626-17.77-.716-5.05-1.194-9.13-2.864-16.33-2.864.72 1.193-1.21 1.193-1.45 2.148-2.64-.478-8.16-.239-8.88 1.67 2.16 0 5.04-.238 5.28.717l-1.2.477.48.716c-1.2.955-6.48-.238-7.44.716.96 1.433 2.4 2.387 4.32 3.342 5.76-.477 7.92 2.387 13.21 3.342.48 2.148 1.44 4.058 6.72 3.58 0 .955 0 1.91-.72 2.387-3.36-.716-4.56-.238-7.44-.716 1.92 3.103 12.48 1.91 15.61 0 2.64.239 7.92-.716 7.44 1.194-1.92 0-3.6.239-4.56.716 2.4.955 3.6 2.626 7.44 2.864 0-.954 0-1.91.72-2.387h4.33c-.48-2.148 4.32-1.67 3.6-2.864.72 1.193 3.36 1.432 5.28 2.148-.72 1.432-4.32 1.432-2.16 3.342-3.36 1.194-7.44 2.387-12.49 1.67-2.88 1.194-3.84 2.388-8.88 1.672l.48-.716-1.2.238c-2.64-1.193-5.29.478-8.89 1.194-3.36.716-5.04-.478-4.32 1.67l-1.2.478.48.716c-3.36 0-7.45-.238-8.17 1.194l-1.2.239.48.716c-10.32 0-19.93 3.819-28.82 2.148l1.2-.477-4.32-.24c-3.12 0-6 .24-8.88-.477l.48.717c-2.16.238-4.33.716-4.57 2.148 2.89.477 4.57.477 7.45 0-.72 1.193 2.4.477 2.16 1.67l-1.2.24c.72 0 1.2 0 1.92.238.48.239.72.716.96 1.194l.48-.717c2.88.716 2.88 3.103 6.01 3.58 3.36 0 8.16-1.431 9.6-1.193-3.36 2.387 5.04 4.297 9.61 4.774.24.955 0 1.671-.72 2.149 1.2.477 3.12.477 3.6 1.193l-.48.716 1.2.239c-14.41.955-29.54 2.626-40.83-1.194-2.88 1.194-5.52.717-8.16.478.24 1.193-1.68 1.193-1.44 2.387 3.6 2.387 11.52.239 16.33 2.387l-1.2.477.48.716c-9.61 0-17.05 0-27.38.478-.72.477-.72 1.432-1.44 2.148 3.36 1.67 6.48 3.342 7.44 6.445l-1.2.239-.48.716c-3.6-.716-6.48-4.058-11.04-2.865 1.68 1.91 6.24 2.387 6.72 4.774-5.28-1.193-12.25-1.193-14.89-3.58-.72.716-2.4.477-3.6.716 0-1.432-2.16-1.671-1.44-3.342l1.2-.239-.48-.716c2.4-.477.96 1.433 2.88 1.194 2.64-.716 5.04-.955 8.16-.478-2.4-2.625-6-4.296-12.48-4.535-1.2-2.148 1.92-2.148 1.44-4.058-2.4-.239-4.81-.239-5.29-1.67 3.61-1.671 9.85 1.67 14.89-.478 1.44.477 2.89.716 4.57 1.193.96-.716 3.84-.238 3.6-1.67-.48-1.433-2.64-1.91-4.32-2.865-11.29.478-18.26-2.864-26.66-1.193.24.954 0 1.67-.72 2.148-6.25-.478-9.61-2.626-15.61-3.342-.72 1.432-2.64 1.91-4.56 2.864-1.69-.238-2.89-.715-5.29-.477-.96-2.626-4.8-3.58-11.04-3.342 0 .478-.24.955-.73 1.194-8.88.239-10.08-3.82-17.77-4.535 0-.955-.48-1.671-1.44-2.149-5.52 0-16.81 1.91-22.09-.716-9.37 1.671-25.46-.716-34.82.716-2.41.478-5.53 0-9.61.478.24 1.193-1.92 1.193-2.16 2.148 1.68.716 1.68 2.387 1.44 4.058-2.4 0-6.24-1.432-8.17-.477.96 2.625 6.01 1.67 9.61 1.67 4.8 0 9.61 1.91 12.49 1.194-.48 1.432-3.12 1.432-1.44 2.864-1.68 0-2.88 0-2.88.716.72.955 2.64 1.194 2.16 2.865-9.37 2.625-18.98-1.91-28.1-2.387-1.44 0-.96.716-2.88.716-1.68 0-3.12-.955-3.61-.716-1.68.238-2.4 1.91-4.56 1.193-1.92-1.67-10.81-1.67-14.17 0 2.16 2.865 11.53-.716 13.21 2.148 5.28-1.91 8.65.955 12.49 2.149l-.48.716-.48.716c-11.29 4.535-21.13-3.82-29.54-2.148 1.2.954 3.84 1.432 7.44 1.193 2.65 2.387 4.09 5.729 9.61 6.445v2.148c-6.24-1.67-10.57-3.341-19.21-2.864-2.4-.477-1.2-3.103-4.32-3.342-.72 0-1.21.478-1.45.716-.24 1.91 3.13 1.91 2.17 4.058-7.45-.477-15.13-4.535-19.22-8.116 4.33.478 6.25-.716 6.73-2.387-1.44-.238-3.12-.238-2.88-1.193.72-.716 1.44-1.432 3.6-1.194 3.84 3.342 12.73 0 18.49.716-.48-3.819-15.61-1.432-15.61-4.057-4.08 0-13.93.238-19.21-1.194l.48-.716-.48-.716c.48-.716 4.08 0 4.56-.716 1.2-.716-.72-1.432 0-2.864 1.2-.717 2.88-1.194 4.32-1.671-2.4 0-3.6-.716-6.72-.478-.24-3.342 5.28-3.58 7.44-5.728-.96 0-2.16 0-2.16-.478l1.2-.477-.48-.716c1.2-.955-2.64-2.388-2.88-3.58-2.88-.24-3.12.954-5.28 1.192-2.64-1.67-8.17-1.67-10.33-3.58.96-.716 1.92-1.194 2.88-1.67-2.16-.717-7.44-.478-9.6 0l.48-.717-1.2-.239c.72-.954-2.4-1.432-2.16-.716.96 0 .72.716 1.44.716l-.48.717.48.716c-1.2 1.193-3.37-.24-5.29 0-.96-1.433 2.4-.24 1.44-1.671-1.68-.478-2.4 0-4.56-.716-2.16 1.193-4.8 2.387-8.16 2.864-8.65-2.626-19.94-5.251-30.26-5.729 1.68-1.91.96-3.342-1.44-4.774-.48.478.96 2.149-.73 2.149-.24-.955-4.8-.478-6.72-1.671-.72 1.193-4.56.477-6 1.193-.24-.716 1.2-.955 0-1.193-5.53-.478-8.89 1.193-13.21.716.96-2.387-9.13 0-12.49-1.671 0-.955 1.2-1.194.72-2.387 5.76 0 9.61-3.103 14.89-2.148l-.48.716.48.716c.72.716 2.4.955 4.56.716 0-.477-1.2-.478-1.44-.716l.72-.716-.72-.716c.72-.955 4.57.716 6.01-.478v.478h.72c.96 1.67 2.88-.478 0-.478l.48-.716-1.2.239c-2.41-3.342-15.61-2.626-16.33-5.729-2.65.716-4.09 1.91-6.01 2.864-1.68-2.387-6.48-.954-7.44-3.341.24.954-1.44.954-2.88 1.193-4.81-.955-8.41-2.626-14.17-3.342.72-2.387-6.25-3.341-7.45-1.193 2.16-.239 2.16.716 4.32.477 0 2.387-3.84 2.387-6.72 3.342-2.64-.477-1.68-2.864-6-2.387.24.716-.72.955-.72 1.67l-1.21-.238.73 1.671.48-.716c2.64 1.432 6.72 2.148 7.44 4.774 3.84-.716 2.16 1.432 4.32 1.67 1.92-.715 3.85-1.431 6.73-1.67.96.239 0 1.67 1.44 1.67 1.68-.715 5.52-.238 8.16-.477 1.44.717 1.2 2.388 2.89 2.865 2.16 0 4.56 0 4.32 1.193 0 1.433-4.56.239-4.32 1.671 1.68.478 4.08.716 4.32 2.149-3.6-.24-4.81.716-8.17.477.24 1.432-.96 1.91-2.88 2.148-2.16-1.67-5.76-4.774-10.33-4.535-1.68 0-2.88 1.432-5.28 1.67 2.16.478 2.88 1.672 6.73 1.194-1.93 1.91 2.16 2.387 2.16 4.536-2.89.716-5.29.238-7.45.716 4.56 1.67 14.17.477 13.21-3.342 7.45.239 12.25-.239 14.17 3.342-1.44 1.193-5.52.477-8.17 0-1.2.477-.72 2.148-.72 3.341-4.32 1.194-7.68-.716-11.76-.716-1.44.716-1.2 2.149-3.61 2.149-8.64-2.387-12.72 2.387-19.21 3.58-5.76-.716-10.32 1.91-17.05 2.148-5.04-1.67-14.89-.716-18.49-3.341h-3.6c-3.37-.955-8.17-4.058-12.49-5.73-3.12-1.193-4.8-.954-5.28-.476-1.45-.955-3.85-1.671-6.73-2.149l1.2-.477-.48-.716c5.28-.955-3.12-3.103-5.28-4.058V48.21l1.2.239c-.96-.478-1.68-1.194-1.44-2.149l-.48.716c-3.12-1.193-5.77-.238-8.89-1.193l-1.2-.239.48.716h-1.44c-1.44 2.865-10.57 1.433-11.05-.716-3.12 2.148-8.64.239-14.89.716-.48-1.432-3.84-3.341-6-1.67 1.2 0 2.64 0 2.16.716-4.08.716-6.48-2.626-11.05-2.865-4.32 1.194-10.8.239-11.04-2.148 6.48-1.91 12.97 1.193 19.21-.477-3.6-1.671-7.69-1.433-10.33-4.058.96-.717 3.12-.478 2.88-1.671-.24-1.671-4.8-.716-4.32-2.387.96-.716 2.64-.955 2.16-2.387-.72 0-.96-.239-1.44-.478-2.64.239-5.04.716-8.16.716l-.48-.716-.48.716c-1.92-2.864-11.53-2.387-18.5-2.387l-1.2-.238-.48.716c-.96-.239-1.44-.477-2.88-.477.96.477-.24 1.909-.72 2.864-6.24.955-13.69-2.626-17.77.477l-1.2.239.48.716h-2.16v1.67c-2.16-.238-1.92.478-3.6.478-.24-1.91-3.13-2.387-6.01-2.864 0 .716-.48.955-1.44 1.193 0-.716-.48-.954-1.44-1.193-.72.477-.72 1.432-2.16 1.67-3.36-1.431-7.69 2.15-11.05.717-.48-.955 3.36-1.671.72-2.387-2.16-.477-1.2.955-1.44 1.67-3.6-.238-8.16-.238-10.33 1.194 2.89-.477 5.53.239 8.17 1.671 3.12 0 4.32-1.193 7.44-1.193 1.93 1.193 5.05 1.432 7.45 2.387V38.9c3.6.238 4.08 2.148 8.16 2.148 1.21 2.626-3.12 2.387-4.56 3.58l-.48-.716-.48.716c-2.64-1.193-6.96.717-8.88-.477-1.93-.239-.49 1.671-2.89 1.194 4.09 1.432 7.93.238 11.77-.478l.48.716 1.2.239c.96 2.148 1.44 1.194 4.32.716l.97.716 1.44-.239c.24.24 0 .717.72.717 2.16 1.193.96-1.194 3.6-.717 1.92.24 3.12.955 6 .717-.24-.478-1.2-.716-1.44-1.194h7.45c-2.64 0 3.12.477 3.6.477.24 0 .48-.238.72-.238s.48.238.96.238c1.44.24 3.84-.238 6 0 2.17 1.671 7.45 1.671 10.33 2.865 1.44-.478 2.64-.955 4.32-1.194 1.2.478 1.44 1.433 2.89 1.671 0-.955.96-1.67 2.88-1.67 1.68.715 4.08.954 7.44.715l.48.717 1.2-.24c3.13 1.194 9.61.478 11.05 2.388 3.6-.239 6.24.239 8.89.477l-.48.716 1.2.478c-2.89.716-4.57 1.91-8.17 1.193-.48-1.193-.24-.955-2.16-1.67-2.4 0-4.32.715-7.45.477 0 .955 1.45 1.193 0 2.148-.48 0-1.44 0-1.44.477-4.32-.954-7.92-.716-8.16-2.864-4.08 1.67-5.76 4.535-11.05 5.251 3.84.478 5.29.716 8.17.716-2.64-2.148 10.56-2.386 10.32.717-2.64.238-7.2 1.193-9.6.477-.24 1.194-5.05.239-6.01 1.194 1.68 1.432 3.85 2.387 6.73 3.341l-.48.716 1.68.239c-1.2 3.342 6.72 1.67 8.88 3.342l-.48.716.48.716c-3.6.716-7.68 2.148-11.76.716-9.85 3.82-26.42 1.432-31.94-2.864-4.09.238-4.81-1.194-8.17-1.194l.48-.716-.48-.716c-.24-.955 3.36.239 2.16-1.194l1.2-.477-.48-.716c5.77.477 7.45-.716 12.49.716 0-1.432-3.6-2.626-.72-3.342h-3.6l-.96-.716c-.48.716-1.92 1.432-3.12 1.194l.24.716c-3.85.239-1.93-2.387-4.33-2.864-3.12 0-5.28-.478-7.44-.717.24-2.387 3.84-.716 8.16-1.193 0-1.432 2.4-1.432 2.16-2.864-.72-.478-.72-1.433-2.16-1.671-5.76.716-12.48.238-17.77 0 1.92.238 1.68 1.91 0 2.387-3.6-.24-6.72-2.865-11.05-1.194-.96 1.432 2.41.239 1.45 1.671l-1.21.477.49.717c-2.65.238-4.09-.478-6.01-.717-.48-1.67 4.08-2.625 1.44-4.057-1.68 1.193-4.32 1.91-8.16 2.148-.24-.716-.24-1.671-2.16-1.671-.72 0-1.2.477-1.45.716.73.716 2.41.955 2.17 2.148-2.17.955-3.37.478-6.73.478.48 1.432-2.88.955-2.88 2.148 4.8.955 9.37 4.774 14.89 2.864l1.2-.238c.24-.24.24-.717.48-.955l-.96-.478c0-.477.24-.954.72-1.193 4.08-.239 6.48.239 6.72 2.148-1.44.955-4.08-.716-6 .478 3.6.238 7.69 2.387 13.21 2.864 1.68-.716 6.72-1.432 8.89-.716-1.69 1.67-5.05 2.626-8.17 3.58.24-1.67-2.64-.954-3.6-.477-.96 1.67 2.4.716 1.44 2.387-2.16.477-3.12-.239-6.73 0l.48-.716-1.2-.478c-1.68-1.67-6.48-.715-9.6-.715-.96 0-2.16-.717-2.88-.717-4.57-.238-8.65.478-12.49.478-2.16 0-5.29-1.432-6.73 0-.24.954 2.89.238 2.16 1.67l-.48.478.48.477c-4.08 0-6.96 2.626-9.6.716 0 .717-.24 1.194-.72 1.671-6.01 0-5.53-3.341-8.17-5.251-1.2.477-3.6.239-4.56.716 1.44 0 1.68.478 1.44 1.194-4.08 2.148-11.29 1.193-14.89-.478 0 .716-2.4.239-2.16 1.194 2.16.477 2.16 2.387 6.72 1.67-.48 1.671 1.21 2.149 3.61 2.149l-.48.716 1.2.239v.716l-1.2.477.48.716c-7.21-.954-13.21 2.387-14.89 4.535 3.36 0 5.04-.954 6.72-2.148 5.28-.239 9.61.716 12.49-.477.72.955 3.6.716 3.6 2.148-1.68.239-4.08.239-4.32 1.194 4.08.954 8.64 1.67 12.49 2.864 1.68.239 1.68-.716 3.6-.477 1.44 1.91-2.88 2.625-4.32 1.67-9.13 0-20.18 1.433-28.82-.477-.96.716-2.88.716-3.6 1.194-2.17-.24-3.13-1.194-6.73-.717-.72 1.194-1.44 2.388-2.88 3.342-9.13-1.193-24.26-4.535-33.38-.716-.48-1.193 2.16-2.626 0-3.342-13.69 2.626-24.98-1.67-35.54-1.67-1.93-1.91-3.13-1.433-7.45-1.671.24-1.433 1.68-2.387 2.16-3.58-2.88.715-.24-1.672-2.16-1.672-6.72-.238-9.37-4.058-16.33-4.535-5.043-.239-10.326 2.387-17.051 1.67-3.362-.477-5.763-1.431-9.606-.477l-.48-.716-1.201.24c-.96-.478-.72-1.433-.72-2.388.96-.477 2.161-.716 2.881-1.193-1.2-.716-.96-2.149-2.161-2.865l.48-.477c-1.921.239-4.322-.716-3.362-1.91l-1.441.239c0-.955-.96-2.864-4.563-1.67-.96-.717-.96-1.672-2.161-2.15-4.083-.477-6.244 1.672-9.606.478-.24.477-.961.716-.72 1.671-6.485-1.91-9.607.955-15.61 1.671-.241-1.67-3.123-2.626.72-3.342-3.602.239-4.083-1.193-7.445-1.193-.24 1.193 1.681 1.193 1.441 2.387-3.122.477-7.445 2.387-11.047 1.193.72 0 1.921-1.91.721-1.67-5.764-.24-7.445 2.148-12.489.477.721 0 .961-.716 0-.716l-1.2-.24c-.241.478-.48.717-.961.956-.72 0-1.921.238-2.882.238l.481.716c-6.244.24-17.532-.238-22.095-2.148-1.2 0-.48.955-2.161.716-1.921 0-.961-1.67-2.882-1.67-1.201 1.431-4.082 1.909-3.602 4.057 3.362-.477 4.803.478 6.724 1.671-3.842 1.194-12.248 1.671-16.33-.477-2.162.477-3.603 1.67-6.725.716-.48-1.432 2.642-.716 2.882-1.671-6.964-3.103-15.37-2.626-21.373-5.251-8.646-.24-15.13 2.386-23.776 3.341 0 .716-1.921.239-1.441 1.194 3.122 1.91 7.205 4.296 14.17 2.864 1.681.716 7.444 2.387 8.885.716-2.161-1.193-.72-2.387 0-4.057l1.201.238.48-.716c2.162-.239 2.402-1.432 5.284-1.193.48 1.91 6.724 4.058 3.602 5.251 4.563-.716 4.323 1.432 7.445 1.67 7.925-.238 12.008 2.15 19.933.717.24 1.432 2.641 1.67 4.322 2.387-1.201 1.432-.24 4.058-3.602 4.058-.24-2.626-3.122-3.58-7.445-4.058-4.323 1.432-6.004.239-11.047 1.67-4.323-1.193-7.205-1.193-10.327-3.341-4.322 1.194-8.165 4.058-14.168 2.148l-.481-.716c-.24.239-.24.478-.48.716-3.602 1.433-8.165.955-12.248.955l11.527-1.432c-1.2-3.58-10.566-.955-13.208.477-.961-.477-.24-1.91-2.162-2.148-7.204 3.342-20.172 2.148-29.538.716v3.58c-4.323.717-4.323-.477-7.445-1.193.48-.477 2.882 0 2.882-.716-.24-.477-.961-.716-.721-1.67-.961.477-3.602.477-4.563 0-1.921-.956 1.201-.717.721-2.15-5.044-1.909-12.968 1.433-7.445 3.581 1.201-1.193 4.323 0 5.283.478-.96 1.91-2.161 2.864-2.161 4.535-3.122-.477-7.205.955-10.327.477.721-1.432 2.642-2.387 4.323-3.341-1.681-.24 0-2.149-2.161-2.149-8.406 1.433-14.65-1.91-20.653.716 3.122.716 6.243 0 10.326.716-1.681 1.671 2.882 1.671 1.441 4.536-4.563-.239-8.886 1.193-12.488 0-.24-.716.961-.716 1.441-1.194-6.004 0-12.008.478-17.771-.477-1.922.239-3.363 2.148-5.284 1.193-1.921-.477-1.441-2.387-3.602-2.864-4.563-.477-5.043 1.194-6.724 2.387-17.772-1.194-36.023 1.67-52.354.477V-16h1231.51c-1.44.477-2.64.716-4.56.477 2.4 1.194 4.8 1.194 7.44.955v11.935c-5.04-.716-10.09 2.148-14.89-.477-.72.716-1.68 1.193-2.16 2.148 4.32-.239 5.76 1.194 9.61 2.148 3.6-.238 5.04.716 7.44 1.194v4.296c-2.4 0-4.8-.238-6 .478v1.67c1.44-.715 3.84.478 6 .955zM661.441 83.06l.481.716h-1.201v-2.387c.72.477 1.441.716 1.921 1.193l-1.201.478z" fill="#fff"/><path d="M977.244 72.796c-1.921.477-5.764.716-6.725-.478 1.201-.477 2.402-1.193 5.284-.716l-.48.716 1.2-.238c-.24.477.481.477.721.716zm286.266-6.445l-1.2.477.48.716c-3.37.478-6.49-.238-9.61-.716-.96 0-1.44.716-1.44-.477l1.2-.477-.48-.716c3.84-.478 8.89.477 11.05 1.193zm32.66-12.651c-1.68 1.194-5.53 1.432-8.17 2.148-.72-.477-.72-1.432-2.16-1.67l.48-.717-1.2-.477c3.36-1.671 8.89-1.194 11.05.716zm-94.86-12.651l1.2.239c-.48-.478-.72-.955-.48-1.433h-.72c-3.12.478-4.09.24-6.73-.477-.24-2.148 2.4-3.103 5.29-3.58 2.88.716 7.92 3.103 10.32 1.67 0-.477-1.2-.477-1.44-.716 4.33.24 9.85-1.432 12.49.478l-.48.716-.48.716c-1.2 1.67 3.6 0 1.44 0l.48-.716-.48-.716c6.48-2.387 9.13.716 13.21 2.148 2.64.955 6 .477 6 2.148-1.2 0-2.64-.238-2.88.478 2.64.238 3.6 1.91 6.73.716.24.477.96.716.72 1.67l-.48.717.48.716c-4.81.239-15.85.716-18.5-1.67-1.44.477-5.28-.24-4.32 1.67-1.2-1.432-4.08.239-6 0-1.2-.239-3.36-2.387-4.33-.477.24-.955-.24-1.433-1.44-1.671-1.92 1.193-5.04 1.67-7.44 2.387-.72-.955-2.64-.955-5.28-.716l-.48-.717-1.21-.238c1.21-1.671 5.77-.955 4.81-3.342zm52.59 4.535c-1.44 0-4.8.955-6 0l.48-.716-.48-.716c1.68-.477 6.24 0 6 1.432zm-40.58-14.56c.24 1.193-.97 1.67-2.17 2.148l-.48-.716-1.2.238c-.72 0-1.2-.477-1.44-.716l1.2-.238-.48-.716c1.68-.24 2.64-.478 4.57 0zm13.92-.478c-.24-1.193.96-1.67 1.44-2.387l1.21.239.48-.716c1.92.239 2.88 1.193 5.28 1.193.72 1.194.24 1.194-.72 2.149l-1.2.238.48.716c-2.88-.238-3.12-1.67-6.97-1.432zm13.45-1.193v2.387c-1.92 0-1.44.716-2.88 0l.48-.716-.48-.716c-.24-.717 1.44-.717 2.88-.955zm10.33 2.387l-1.44-.239-.72.716c-1.2.239-2.4-1.432-.72-1.67l.72.715.72-.716c1.44-.238 3.36 1.194 1.44 1.194zm2.88 1.67c-1.92 1.672-6.24.478-7.44-.715h2.16l1.2.477 1.2-.477c1.2 0 3.6-.478 2.88.716zm49.71 21.96l.48-.715-1.2-.239c-1.68 0 0-1.432.72-1.67l1.2.238-.48-.716c.48 0 1.44 0 1.44.477l-.96.955.24 1.194c-.24.477-.72.477-1.44.477zm4.33 2.865c-5.29 1.432-10.81-.238-14.17-2.148 3.6 0 6-.478 8.88-.716l-.48.716 1.2.239c.72 1.193 4.57.477 4.57 1.91zm213.97 21.483c-.48-2.148 2.64-2.626 4.33-3.58.96.954 3.84.716 4.32 2.148l-1.2.477.48.716c-3.12-.238-4.33.716-7.93.24zm218.3 10.98c2.16-.477 5.05-.477 5.29 1.194l-.48.477.48.478c-1.93.716-5.53-.24-5.29-2.149zm-94.62-1.671c1.2.24 3.12.24 3.6.716-1.44.24-5.28-.238-3.6-.716zm30.26-10.98c.48-.477-2.88-.955-.72-1.193 0 .477 3.12.954.72 1.193zm-882.324-.716c0-.716-2.161-.239-2.161-.716.72-.955 3.842.478 2.161.716zm90.298-11.457c10.326-1.194 9.846 4.296 16.33 4.774v2.386c3.362 0 5.284.478 6.724 0-1.921-2.864 7.685-1.909 10.327-1.67-1.441-1.433.961-1.194 1.441-2.387 3.602-.239 4.803.716 8.165.477.24.716-.24 1.432.721 1.671 2.882-1.67 11.287-.477 12.488 1.194-2.162 2.148-6.725 1.91-10.327 1.67-.48-1.193 1.441-.716 1.441-1.67a81.072 81.072 0 01-4.323-.717c.24 1.194-1.921 1.194-2.161 2.149-2.642 0-2.642-1.194-5.283-1.194-.961.955-3.603.955-4.323 2.148.96 1.671 4.082 2.149 6.004 3.342 2.881-.716 4.563-2.148 6.003-3.58 6.244 2.387 19.213-1.671 23.055.716 2.402-1.671 6.725-1.671 11.047-.716l-.48.716c2.161-.239 5.043-.478 6.724.716l-.48-.716c2.161-.716 7.445-.478 8.165.716-1.441 1.193-5.283 2.626-8.165 1.67l.48-.715-2.161.716 1.201-.239c.48.716 2.161.955 2.881 1.671 5.284-.955 12.969-.477 18.492-2.148 2.162.477 4.563.954 5.284 2.387-.24.954-3.602.238-2.882 1.67.48 0 .96 0 .72.478l-.48.716 1.201.239c-3.602 2.148-15.85-.716-18.492 2.148 4.083 1.432 10.087 2.387 13.209 3.342-.481 0-1.442 0-1.442.477 2.162.239 3.603.955 5.284 1.671.48 1.432-3.122.478-2.161 2.148 2.401-.954 3.842-.238 6.003-.716l.481.716.48.717c-.24.477 2.162 1.432 2.162.477v-.716l1.2-.239-.48-.716c1.441 0 8.163.477 10.323 1.194l-.48.716c1.68-.24 3.13.238 4.33.716 0 .477 0 .716-.24 1.193-1.69.478-3.37.239-5.05 0l.48.716c-6 2.149-14.646 1.194-18.489 2.149l-.48-.716c-.241.477-.48.716-.721 1.193-.48.477-.96.955-1.441 1.194l1.201.238c.72 1.671 3.602 2.149 5.284 3.342-8.166-.239-17.292.239-19.213 5.251-3.842.239-7.925-2.864-10.327-.716 3.843 2.626 9.607 4.297 11.048 8.116-.961 0-.961.477-2.162.477-6.724-3.58-12.728-7.638-19.212-11.457-.24-1.194 1.921-.955 2.161-2.148-1.921-4.058-11.047-1.671-14.169-5.252-7.685-.238-10.807-3.103-12.488-6.445 1.441-.954 3.603-1.67 4.563-2.864-3.842-.477-5.523-2.148-8.165-3.342-2.882.955-5.284-.239-8.165.478.48-1.194-1.922-.717-1.441-2.149-.24-.955 2.882-.238 2.161-1.67-1.201 0-2.401 0-2.882-.478-.48-1.432 1.681-1.67 1.441-2.864-2.641.716-5.283-1.433-6.724-2.387-4.323-.478-5.283 1.193-6.724 2.387.96 0 1.681.238 2.161.477l-.48.716 1.2.477c0 .955-2.641.24-3.602.478-.48 1.193 2.642 1.193.721 2.148-2.882.478-2.162-.955-4.563-.716 1.681 1.671 5.523 1.91 6.724 4.058h.72c0-1.194 2.642-1.194 3.603-.716.24.955-.961 1.432-2.882 1.193l.48-.716c-.96.478-1.921.239-2.641.239v-.716c-5.284 1.91-13.449-.955-17.772-2.148 3.122-.717 5.764-1.91 8.165-3.342-3.122-1.671-9.846-1.432-11.767-3.58 2.161-2.865-1.921-6.207 1.441-10.503z" fill="#fff"/><path d="M987.57 98.575l-.48-.716 1.201-.238c-.24.477 0 .954-.721.954zm8.165-11.457c.481.239 1.681 1.91 0 2.148l-1.2.239-.481.716c-1.681-1.194-1.441-3.103 1.681-3.103zm284.105-2.388c-6.73-1.67-12.49-3.818-21.38-4.057l.48-.716-.48-.716c2.89-1.432 9.85 0 14.89 0 2.65 0 4.81-1.432 6.01 0-.96-1.194 1.2-.955 1.44-1.671 7.44-.477 18.25-1.671 24.49.477 17.54-3.341 29.54 2.387 47.31 3.342.96 1.194.24 2.148-1.44 2.865 2.65-.24 4.09.477 6.01.715.72 1.91-4.09.955-3.61 2.865 1.69-.239 2.89 0 3.61.477l-.48.716.48.716c-5.05 1.194-11.53 1.91-17.77 2.388 2.64.954 2.16 2.386 1.44 4.535-7.69 3.342-18.98-.478-25.94-2.387-2.88.955-7.44.955-11.05 1.67-10.32-1.67-14.89-6.444-23.77-8.831l.48-.716-1.2-.478c-.24-.954.48-.954.48-1.193zm88.85 5.252c-1.92 1.194-7.68.955-9.6 0l.48-.716-.48-.716c2.88-.955 8.88-.716 9.6 1.432zm-289.14 38.669l7.68.716c-2.4 0-5.04 0-7.68-.716zm711.58-18.857l4.8-2.626c-.72 1.433-2.88 1.91-4.8 2.626zm-2.17 1.194c.48-.478 1.2-.716 1.92-1.194l-1.92 1.194zm-196.44-5.013c0-.477 0-1.194.24-1.671l-.24 1.671zm.24-1.671l.24-2.864c.24.955 0 1.909-.24 2.864zm187.08 2.864c.72.478 1.2 1.194 1.44 1.671l-1.44-1.671zm-616.48-2.864c1.44 0 2.88.478 4.33.478l-4.33-.478zm-129.68-7.877c.96 0 1.92 0 2.88.239l-2.88-.239zm689.24-6.207l3.12-1.193c-.72.478-1.68.955-3.12 1.194zm-327.81.956c.72 0 1.44.238 2.16.477l-2.16-.477zm110.23-12.413l1.68-.477c-.48.239-.96.477-1.68.477zm4.32-.955l-2.64.717c.72-.478 1.44-.955 2.64-.717zm-121.99 9.787l7.44.478c-2.64 0-5.04 0-7.44-.478zm-358.55-1.671l6.72 1.91c-2.88 0-4.32-1.194-6.72-1.91zM807.935 74.705l-2.161-.238c.72 0 1.441.238 2.161.238zm-95.341 5.729c1.441-.477 2.882-.477 4.563-.477l-4.563.477zm4.323-.477l8.886-1.194c-2.402 1.194-5.764.955-8.886 1.194zm445.003.477l2.16.239c-.72-.239-1.44-.239-2.16-.239zm-317.722-4.535c5.524-.239 10.808-.477 16.331-.477l-16.331.477zm650.582-3.819l3.12.955c-1.44.238-2.16-.716-3.12-.955zm-193.81-2.148c-1.2.238-2.4-.478-3.6-.716l3.6.716zm-28.1-1.91c.96 0 1.92.239 2.88.239l-2.88-.24zm45.87-3.581l3.6-1.193c-.96.716-2.4.955-3.6 1.193zm104.47-3.103l-2.88-.238c1.2-.24 1.92 0 2.88.238zm-445.726 9.787l-2.161 1.194c.72-.478 1.201-.955 2.161-1.194zm145.776 3.103l3.12.477c-.96-.238-2.16-.238-3.12-.477zm7.44-2.387l-7.44.716c2.4-.477 4.8-1.193 7.44-.716zM1154 68.5l-2.64-.478c1.2-.239 1.68.239 2.64.477zm29.3-11.936l4.32-.238c-1.44.238-2.88.716-4.32.238zm28.09 8.116l-4.32-.477c1.44-.239 2.88 0 4.32.477zm58.6 6.684l-10.33-1.194c3.37.239 7.93-.716 10.33 1.194zm-17.05-5.49h-2.88c.72 0 1.92-.24 2.88 0zm29.78-12.413h3.6c-1.44.239-2.4 0-3.6 0zm0 0h-4.56c1.44-.477 3.12-.238 4.56 0zm-25.46-3.581c.72-.477 1.2-.954 1.68-1.193l-1.68 1.194zm-57.15-2.864c.24-.238.48-.477.96-.716l-.96.716zm-6.49-1.67l4.33-1.194c-1.21.716-2.41 1.194-4.33 1.194zm51.88-.716l2.88.477c-.96-.239-1.92-.239-2.88-.478zm-39.15-13.845c1.2.239 1.68.477 2.88.716l-2.88-.716zm4.32 1.671l-.24 1.432c-.24-.477-.24-.955.24-1.432zm23.06-1.194h4.56c-1.68 0-3.36.239-4.56 0zm15.37-2.148c0 .477-.24 1.194-.48 2.148l.48-2.148zm.48 2.387c.24.477.24.955.24 1.67l-.24-1.67zm52.83 13.845l1.92 1.193c-.96-.239-1.44-.716-1.92-1.193zm16.33 9.07l-13.93-.716c4.81.239 9.37.477 13.93.716zm-15.85-2.626c.48.24.96.717 1.92 1.433l-5.52-1.433c.96-.238 2.4-.238 3.6 0zm.96 3.104c-.48.477-.96.716-1.44 1.193l1.44-1.194zm445.73 38.191l-4.56-.716c1.68-.239 3.12.239 4.56.716zm23.77 3.581l4.33 2.148c-1.92-.477-2.89-1.432-4.33-2.148zm22.1-10.026l3.6.24c-1.2 0-2.4 0-3.6-.24zm-784.1 7.877l13.44.955c-4.56 0-9.12-.238-13.44-.955z" fill="#fff"/><path d="M995.255 90.937l-.72-1.67c.72.715.961 1.193.72 1.67zm0-8.593l-5.283-.478c1.681-.238 3.842 0 5.283.478zm361.195 6.683c.96.24 1.92.24 2.88.478l-2.88-.478zm-97.75-9.07c-1.2-.239-2.4-.239-3.36-.716l3.36.716zm21.62 5.967c-.96.239-1.92 0-2.88.239l2.88-.239zm-962.938 42.875l1.064.213-.426.637c4.892.85 19.354.213 20.418-2.55-6.168-.425-15.526.425-21.056 1.7zM64.93 107.758c-5.955 1.488-1.276 4.888-.638 7.651 1.701.85 3.615 1.7 6.593 1.913 3.19-3.613-1.276-8.289-5.955-9.564zm313.492 7.864c-1.489 0-2.552 0-2.552.637 1.063 0 3.19.425 2.552-.637zm-51.895-6.802c-1.488 0-2.552 0-2.552.638.638.638 2.765.425 2.552-.638zm113.998 0h1.276v-.637h-1.276v.637zm-84.435-3.188c-3.19.213-4.466 1.488-5.955 2.551 3.616.85 8.082-.425 5.955-2.551zm-21.693 2.126c-1.701 0-3.19 0-3.19.637 1.063-.212 3.828.638 3.19-.637zm-24.246 0c.851.637 3.403.212 4.679.637 1.064-1.487-4.679-2.125-4.679-.637zm62.954-3.614c-.213 1.276 1.914 1.063 2.552 1.913-1.489 1.488-5.317-.85-7.869.425.638 2.126 6.38 1.913 9.783 1.488.425-2.125 4.466-2.125 5.317-4.038-3.616-1.063-6.38-.213-9.783.212zm-260.322.001c2.127.212 2.978-.213 2.552-1.488-1.489.212-2.977.212-2.552 1.488zm272.019-.851c.851.213 1.702.425 3.19.425.851-1.275-2.977-1.487-3.19-.425zm-212.256-4.25c-4.679-.213-10.209-1.063-13.186.425 5.742 1.275 18.503 2.55 21.693.425-1.701-1.488-5.529-.638-8.507-.85zm405.796-1.488c0 1.063 1.489 1.275 2.553 1.913.425-1.488-1.702-1.276-2.553-1.913zm-270.743-2.551c-.213 1.276-2.978 1.063-5.317 1.063-1.489 1.063-.851 1.275-.638 2.976 3.828 0 4.253-1.913 7.869-1.913-.426-.85-1.276-1.488-1.914-2.126zM4.741 96.068c-.638.85 2.127 1.7 2.552.638-1.063 0-.638-1.063-2.552-.638zm11.697.425c-1.063-.212-1.701-.637-2.552-.637-.638.85 2.127 1.487 2.552.637zm32.753-.425c1.489-.212 1.489.638 3.19.425 0-.425.213-.85.638-1.063-.85-.637-4.253-.637-3.828.638zm-11.059-1.063l1.063.425-.425.638c1.914.213 1.914-.638 3.828-.425.213-1.488-3.19-1.488-4.466-.638zm5.955-15.09c-.85-.213-3.403.425-3.19-.425.212-.425.85-.638.638-1.488 3.403.213 5.955 0 7.23-1.063-3.828-.637-4.678-2.763-6.592-4.25-6.593-2.126-10.422 1.275-15.739 1.487-6.38.213-8.932-1.487-14.462-1.487-5.105.212-7.657-.213-11.06.425-6.38-4.889-19.354-1.7-30.838-2.126-2.127 3.4-5.317 5.951-13.825 5.739 0 1.7 1.914 2.338 1.276 4.25-3.615 1.063-4.679-.637-9.783-.424-1.276.85-2.765 1.7-5.317 1.912l.425.638-1.063.213c0 .425-.425.425-.638.637l.425.638-1.063.212c0 .638 2.127.213 2.552.638 2.127-1.063 8.72-3.188 11.698-1.488 0 2.763-5.105 2.55-5.956 4.676 2.127.85 4.254-.425 7.232 0 .212.213.638.425 1.276.425.425 2.338 2.552 4.676 8.507 5.739 1.914.425 4.679 0 7.231.425 1.064.212 1.489.85 1.914 1.063 5.317 1.275 9.571-.85 11.698-1.913 1.276.637 2.34 1.275 4.679 1.488 1.701-.85 4.679-.85 7.869-.638 2.978-.85 4.04-2.763 8.507-2.976 3.403-4.463 9.358-7.439 20.418-7.651 1.701-.425 2.127-1.488 3.19-2.126 4.04-.637 10.634 0 13.186-1.487 4.679-.213 9.358-.425 11.697-1.913-4.466-.85-7.656-.638-12.122.85zM329.08 93.517c-2.765-1.062-5.104.638-5.317 2.126 2.552 1.063 5.317-.425 5.317-2.126zM28.987 96.068h1.276v-.638h-1.276v.638zm123.142-.638c4.254.425 1.489-1.062 0 0zM30.9 92.88c-1.488-1.275-6.805-.425-7.868.638 1.7.425 8.294 1.7 8.507-.426l1.063-.212c-.638 0-1.276.212-1.914.425l.213-.425zm350.074 1.063c4.254.425 1.489-1.063 0 0zM51.105 91.392c-2.126 0-4.891-.212-5.955.425l.426.638.425.637c.638.638 1.276 1.276 3.19 1.063.638-1.063 1.914-1.7 1.914-2.763zm.851.85c1.489 0 2.552 0 2.552-.637-1.489-.213-2.552 0-2.552.637zm14.25-1.912c-.638 0-1.064-.426-1.276-.638-1.914 1.063-7.657.212-7.87 2.125 3.616-.212 8.933.638 9.146-1.488zm99.747-1.063c-2.552 0-4.679 0-5.955.637l.426.638-.426.638c2.34.85 7.231.425 5.955-1.913zm394.524-5.101c-1.276-1.063-1.276-2.338-3.19-2.55 1.489 0 2.552 0 2.552-.638l-1.063-.213.425-.637c-3.828.212-5.955-.425-9.145-.425-1.063 1.275 2.977 2.55 1.914 4.038 7.656 1.062 9.145 5.313 15.1 7.226 2.553-2.125-3.615-4.676-6.593-6.801zm-176.951 5.526c-1.063-.638-4.466-.638-4.041.637 1.914 0 4.041.213 4.041-.637zm-159.298-1.488h-2.552c1.276.85-1.276 1.7 1.276 1.913-.638-1.275 1.063-1.275 1.276-1.913zM47.277 89.692c.426-1.488-3.19-1.488-2.552 0 1.702 0 1.276.638 2.552 0zm596.145-3.826l-1.063.213c.851 1.275 3.828 1.275 6.593 1.913 4.254.85 9.358 1.912 14.462 1.062-2.339-3.613-13.186-2.55-20.417-3.613l.425.425zm-45.513 3.401c1.489 0 2.552 0 2.552-.638-1.489-.212-2.339 0-2.552.638zm-354.54-.637c-1.063 0-3.19-.426-2.552.637 1.276 0 2.34 0 2.552-.638z" fill="#fff"/><path d="M561.966 82.465c-.426 1.276 1.276 1.488 3.19 1.488 0-1.063-.851-1.913-3.19-1.488zm15.738 0c.213.85 3.191.213 4.679.425.851-1.487-5.104-1.912-4.679-.425zm-39.984-1.912c-.213.85.851 1.275 2.552 1.062.638-1.062-.85-1.062-2.552-1.062zm-409.199 0h-1.914v1.062h1.276c0-.425.851-.425.638-1.062zm437.911.425c1.489 0 2.552 0 2.552-.638-.851-.638-2.765-.425-2.552.638zm-299.455-1.063c.212-1.063-.851-1.488-1.914-1.913-.213.638-1.489.425-2.552.425-.213 1.7 2.764.213 4.466 1.488zm-6.594 0c0-.425.213-.85.639-1.063h-1.915c-.212.638.426.85 1.276 1.063zm307.325-1.063c-1.063.213-2.765.213-3.19.638 1.701 0 3.19 0 3.19-.638zm-42.536-.85c-1.701 0-3.19 0-3.19.638 1.489.425 2.977.637 3.19-.638zm-317.959-1.488c0 .85 1.064 1.063 1.277 1.913 2.552.213 4.041-.212 4.679-1.063-2.34-.212-3.191-1.062-5.956-.85zm-82.52 1.063c-1.063 0-1.701.213-1.914.638 1.063.212 1.489 0 1.914-.638zm129.736.425h1.276v-.637h-1.276v.637zm-148.239 0c1.276-.212 4.466.638 3.828-.637-.425-.85-4.679-.638-3.828.637zm95.706-.637h1.277v-.638h-1.277v.638zm-85.71-.425c.851.212 1.701.425 3.19.425 1.063-1.063-3.403-1.063-3.19-.426zm115.911-.638c1.702 1.7 7.444 0 7.87-1.488-3.829-.212-6.594-.425-7.87 1.488zm-10.421-.425v.637h1.914v-.637h-1.914zm-90.39.425c0-.425.851-.425.638-1.063h-1.276c-.85.425-.85.85.638 1.063zm112.083-2.338c.213.85.638 1.488 1.915 1.913.212-.85 3.19-.213 2.552-1.488-.426-.638-3.403-.85-4.467-.425zm-104.214.85c-1.063-.85-4.466-.85-4.678.638 1.488.85 4.253.212 4.678-.638zm70.611.638c1.701-.213 3.615-.425 4.679-1.063-1.914.213-5.53-.638-4.679 1.063zm-58.913 0c1.914-1.7-2.977-2.338-4.679-1.063l1.063.425-.425.638h4.041zm58.275-3.614v1.488c1.488.213 2.552 0 3.19-.425.425-1.063-1.276-1.063-3.19-1.063zm-88.476-.212H118.1v.638h2.552v-.638zM41.96 69.713c-1.276 0-2.127.213-2.552.638 1.489.212 2.552 0 2.552-.638zm88.476-.425c1.701.213 2.977.638 4.041-.425-1.064.425-3.829-.213-4.041.425zm295.201 0c0-.425.212-.85.638-1.063-1.489.213-1.489-.637-3.19-.425-.426 1.276.425 1.7 2.552 1.488zm-271.594-.638c.213-.637-.638-.85-.638-1.488h-3.828c-1.276 1.913 2.765 2.338 4.466 1.488zm65.081-.637c.85-1.275-3.191-.213-1.915.425.426.212 1.702-.425 1.915-.425zm-209.279.212c1.914 0 2.34-.85 3.19-1.487-1.701-.85-3.615.212-3.19 1.487zm-10.421-2.55c-.213 1.488.638 2.338 3.19 2.125.638-.637 1.276-1.488 1.914-2.125l-.425-.425.425-.425c-1.276.637-3.828.425-5.104.85zm163.126-.638c-1.063 0-1.701.213-1.914.638 1.064 0 2.34.212 1.914-.638zm51.895-1.913c-.851-.212-1.276-.425-2.552-.425-1.064.638-.639 1.913.638 2.126-.639-1.063 2.552-.213 1.914-1.7zm-56.999-7.864c2.552 1.276 1.489-1.275 0 0zm12.336-4.463c1.063 0 .425.85 1.914.638.638-.638-1.489-1.488-1.914-.638zm-153.344-1.7c-1.063 0-1.701.212-1.914.637 1.064 0 2.34.213 1.914-.637zm152.067-.637v1.062c1.489 0 2.552 0 2.552-.638-.85-.212-1.063-.638-2.552-.425zM28.986 46.121c-1.276 0-.85-1.063-2.552-.638-.212 1.063 2.127 1.913 2.552.638zm163.34 9.564c.425-.212-.426-.212 0 0z" fill="#fff"/><path d="M-403.182 22.954v14.028c4.041 0 8.507 0 13.186-1.063-.638.425-.85 1.063-.638 1.913 1.489.213 2.553.638 4.679.425.851-1.7 2.553-1.913.638-3.613 1.064-.425 4.679-1.488 5.317 0h-1.914c-.425 1.488 2.765 1.7 1.276 2.55-2.764 1.488 4.679 2.764 4.679 5.101-2.339 1.488-7.444 1.488-9.145 3.189l1.063.425-.425.637c5.105-.425 10.847-2.338 15.739-.637 4.466-1.063 8.081-2.55 14.462-2.55-.638 1.062 1.063 1.062 1.276 1.912 2.339-.425 7.231-.212 7.869 1.488-1.914 0-4.466-.213-4.679.637l1.064.425-.426.638c1.064.85 5.743-.212 6.593.638-.85 1.275-2.127 2.125-3.828 2.975-5.104-.425-7.018 2.126-11.697 2.976-.426 1.913-1.276 3.613-5.955 3.188 0 .85-.001 1.7.638 2.125 2.977-.637 4.041-.212 6.593-.637-1.702 2.763-11.06 1.7-13.825 0-2.339.212-7.018-.638-6.593 1.062 1.702 0 3.191.213 4.041.638-2.127.85-3.19 2.338-6.593 2.55 0-.85 0-1.7-.638-2.125h-3.828c.425-1.913-3.828-1.488-3.19-2.55-.638 1.062-2.978 1.275-4.679 1.913.638 1.275 3.828 1.275 1.914 2.975 2.977 1.063 6.593 2.126 11.059 1.488 2.552 1.063 3.403 2.125 7.869 1.488l-.425-.638 1.063.212c2.34-1.062 4.679.426 7.87 1.063 2.977.638 4.466-.425 3.828 1.488l1.063.425-.425.638c2.977 0 6.593-.213 7.231 1.062l1.063.213-.425.638c9.145 0 17.653 3.4 25.522 1.912l-1.063-.425 3.828-.212c2.765 0 5.317.212 7.869-.425l-.425.637c1.914.213 3.828.638 4.04 1.913-2.552.425-4.04.425-6.593 0 .638 1.063-2.126.425-1.914 1.488l1.064.213c-.638 0-1.064 0-1.702.212-.425.213-.638.638-.85 1.063l-.426-.638c-2.552.638-2.552 2.763-5.317 3.188-2.977 0-7.231-1.275-8.507-1.062 2.977 2.125-4.466 3.825-8.507 4.25-.213.85 0 1.488.638 1.913-1.064.425-2.765.425-3.191 1.063l.426.638-1.064.212c12.761.85 26.16 2.338 36.156-1.063 2.552 1.063 4.892.638 7.231.425-.212 1.063 1.489 1.063 1.276 2.126-3.19 2.125-10.208.212-14.462 2.125l1.064.425-.426.638c8.507 0 15.1 0 24.246.425.638.425.638 1.275 1.276 1.913-2.978 1.488-5.743 2.975-6.593 5.738l1.063.213.426.638c3.19-.638 5.742-3.614 9.783-2.55-1.489 1.699-5.53 2.125-5.955 4.25 4.679-1.063 10.847-1.063 13.186-3.188.638.637 2.127.425 3.19.637 0-1.275 1.914-1.487 1.276-2.975l-1.063-.213.425-.637c-2.127-.425-.85 1.275-2.552 1.063-2.339-.638-4.466-.85-7.231-.426 2.127-2.338 5.317-3.825 11.059-4.038 1.064-1.913-1.701-1.913-1.276-3.613 2.127-.213 4.254-.213 4.679-1.488-3.19-1.488-8.72 1.488-13.186-.425-1.276.425-2.552.638-4.041 1.063-.851-.638-3.403-.213-3.19-1.488.425-1.275 2.339-1.7 3.828-2.55 9.996.425 16.164-2.551 23.608-1.063-.213.85 0 1.488.638 1.913 5.53-.425 8.507-2.338 13.824-2.976.638 1.275 2.34 1.7 4.041 2.55 1.489-.212 2.552-.637 4.679-.425.851-2.337 4.254-3.188 9.783-2.975 0 .425.213.85.639 1.063 7.869.212 8.932-3.401 15.738-4.039 0-.85.425-1.487 1.276-1.912 4.892 0 14.888 1.7 19.567-.638 8.294 1.488 22.544-.638 30.838.638 2.127.425 4.892 0 8.508.425-.213 1.062 1.701 1.062 1.914 1.912-1.489.638-1.489 2.126-1.276 3.614 2.127 0 5.529-1.276 7.231-.425-.851 2.337-5.317 1.487-8.507 1.487-4.254 0-8.508 1.7-11.06 1.063.426 1.275 2.765 1.275 1.276 2.55 1.489 0 2.553 0 2.553.638-.639.85-2.34 1.063-1.915 2.55 8.295 2.338 16.802-1.7 24.884-2.125 1.276 0 .851.638 2.552.638 1.489 0 2.765-.85 3.19-.638 1.489.213 2.127 1.7 4.041 1.063 1.702-1.488 9.571-1.488 12.549 0-1.915 2.55-10.209-.638-11.698 1.913-4.679-1.7-7.656.85-11.059 1.913l.425.637.425.638c9.996 4.038 18.716-3.4 26.16-1.913-1.063.85-3.403 1.275-6.593 1.063-2.339 2.125-3.616 5.1-8.507 5.738v1.913c5.529-1.488 9.358-2.975 17.014-2.55 2.127-.425 1.064-2.763 3.829-2.976.638 0 1.063.425 1.276.638.212 1.7-2.765 1.7-1.915 3.613 6.594-.425 13.4-4.038 17.015-7.226-3.828.425-5.53-.638-5.955-2.126 1.276-.212 2.765-.212 2.552-1.063-.638-.637-1.276-1.275-3.19-1.062-3.403 2.975-11.272 0-16.377.637.426-3.4 13.825-1.275 13.825-3.613 3.615 0 12.335.213 17.014-1.063l-.425-.637.425-.638c-.425-.637-3.615 0-4.04-.637-1.064-.638.637-1.276 0-2.55-1.064-.638-2.553-1.064-3.829-1.489 2.127 0 3.19-.637 5.955-.425.213-2.975-4.679-3.188-6.593-5.1.85 0 1.914 0 1.914-.426l-1.063-.425.425-.637c-1.063-.85 2.34-2.126 2.552-3.188 2.552-.213 2.765.85 4.68 1.062 2.339-1.488 7.23-1.488 9.144-3.188-.85-.638-1.7-1.063-2.552-1.488 1.915-.637 6.594-.425 8.508 0l-.426-.637 1.064-.213c-.638-.85 2.126-1.275 1.914-.637-.851 0-.638.637-1.276.637l.425.638-.425.637c1.063 1.063 2.977-.212 4.679 0 .85-1.275-2.127-.212-1.276-1.487 1.488-.426 2.126 0 4.04-.638 1.915 1.063 4.254 2.125 7.232 2.55 7.656-2.337 17.652-4.675 26.797-5.1-1.488-1.7-.85-2.976 1.277-4.251.425.425-.851 1.913.638 1.913.212-.85 4.253-.425 5.955-1.488.638 1.063 4.04.425 5.317 1.063.212-.638-1.064-.85 0-1.063 4.891-.425 7.869 1.063 11.697.637-.85-2.125 8.082 0 11.06-1.487 0-.85-1.064-1.063-.638-2.126-5.105 0-8.508-2.763-13.187-1.913l.426.638-.426.638c-.638.637-2.126.85-4.04.637 0-.425 1.063-.425 1.275-.637l-.638-.638.638-.638c-.638-.85-4.04.638-5.317-.425v.425h-.638c-.85 1.488-2.552-.425 0-.425l-.425-.637 1.063.212c2.127-2.975 13.825-2.338 14.463-5.1 2.34.637 3.615 1.7 5.317 2.55 1.489-2.126 5.742-.85 6.593-2.976-.213.85 1.276.85 2.552 1.063 4.254-.85 7.444-2.338 12.548-2.976-.638-2.125 5.53-2.975 6.593-1.062-1.914-.213-1.914.637-3.828.425 0 2.125 3.403 2.125 5.955 2.975 2.34-.425 1.49-2.55 5.317-2.125-.212.638.638.85.638 1.488l1.064-.213-.638 1.488-.426-.638c-2.34 1.276-5.955 1.913-6.593 4.251-3.403-.638-1.914 1.275-3.828 1.488-1.702-.638-3.403-1.275-5.955-1.488-.85.213 0 1.488-1.276 1.488-1.489-.638-4.892-.213-7.231-.425-1.276.637-1.064 2.125-2.553 2.55-1.914 0-4.04 0-3.828 1.063 0 1.275 4.041.212 3.828 1.488-1.488.425-3.615.637-3.828 1.913 3.19-.213 4.254.637 7.231.425-.212 1.275.851 1.7 2.553 1.913 1.914-1.488 5.104-4.251 9.145-4.039 1.489 0 2.552 1.276 4.679 1.488-1.914.425-2.552 1.488-5.955 1.063 1.701 1.7-1.914 2.125-1.914 4.038 2.552.638 4.679.212 6.593.638-4.041 1.487-12.549.425-11.698-2.976-6.593.213-10.846-.212-12.548 2.976 1.276 1.062 4.892.425 7.231 0 1.064.425.638 1.912.638 2.975 3.828 1.063 6.806-.638 10.422-.638 1.276.638 1.063 1.913 3.19 1.913 7.656-2.125 11.272 2.126 17.014 3.188 5.105-.637 9.146 1.7 15.1 1.913 4.467-1.487 13.187-.637 16.377-2.975h3.19c2.978-.85 7.232-3.613 11.06-5.101 2.765-1.063 4.254-.85 4.679-.425 1.276-.85 3.403-1.488 5.955-1.913l-1.063-.425.425-.638c-4.679-.85 2.765-2.763 4.679-3.613v-1.488l-1.063.213c.85-.425 1.488-1.063 1.276-1.913l.425.638c2.765-1.063 5.104-.213 7.869-1.063l1.064-.213-.426.638h1.276c1.276 2.55 9.358 1.275 9.784-.638 2.765 1.913 7.656.213 13.186.638.425-1.275 3.403-2.976 5.317-1.488-1.064 0-2.34 0-1.914.638 3.615.637 5.742-2.338 9.783-2.55 3.828 1.062 9.571.212 9.783-1.913-5.742-1.7-11.484 1.062-17.014-.426 3.19-1.487 6.806-1.275 9.145-3.613-.85-.637-2.765-.425-2.552-1.488.213-1.487 4.254-.637 3.828-2.125-.85-.638-2.339-.85-1.914-2.125.638 0 .851-.213 1.276-.425 2.34.212 4.467.637 7.231.637l.426-.637.425.637c1.702-2.55 10.209-2.125 16.377-2.125l1.063-.213.425.638c.851-.213 1.276-.425 2.553-.425-.851.425.212 1.7.638 2.55 5.529.85 12.122-2.338 15.738.425l1.063.213-.425.637h1.914v1.488c1.914-.212 1.702.425 3.19.425.213-1.7 2.765-2.125 5.317-2.55 0 .637.426.85 1.277 1.063 0-.638.425-.85 1.276-1.063.638.425.638 1.275 1.914 1.488 2.977-1.276 6.806 1.913 9.783.637.425-.85-2.978-1.488-.638-2.125 1.914-.425 1.064.85 1.276 1.488 3.19-.213 7.231-.213 9.145 1.062-2.552-.425-4.891.213-7.231 1.488-2.765 0-3.828-1.063-6.593-1.063-1.701 1.063-4.466 1.276-6.593 2.126v2.125c-3.19.213-3.616 1.913-7.231 1.913-1.064 2.338 2.765 2.125 4.041 3.188l.425-.638.426.638c2.339-1.063 6.167.638 7.869-.425 1.701-.212.425 1.488 2.552 1.063-3.616 1.275-7.019.212-10.421-.425l-.426.637-1.063.213c-.851 1.913-1.276 1.063-3.828.637l-.851.638-1.276-.212c-.213.212 0 .637-.638.637-1.915 1.063-.851-1.063-3.191-.637-1.701.212-2.765.85-5.317.637.213-.425 1.064-.637 1.276-1.063h-6.593c2.34 0-2.765.425-3.19.425-.213 0-.425-.212-.638-.212-.213 0-.425.212-.851.212-1.276.213-3.403-.212-5.317 0-1.914 1.488-6.593 1.488-9.145 2.551-1.276-.425-2.339-.85-3.828-1.063-1.064.425-1.276 1.276-2.552 1.488 0-.85-.851-1.488-2.553-1.488-1.488.638-3.615.85-6.593.638l-.425.638-1.064-.213c-2.764 1.063-8.507.425-9.783 2.125-3.19-.212-5.53.213-7.869.425l.425.638-1.063.425c2.552.638 4.041 1.7 7.231 1.063.425-1.063.213-.85 1.914-1.488 2.127 0 3.829.638 6.593.425 0 .85-1.276 1.063 0 1.913.426 0 1.276 0 1.276.425 3.829-.85 7.019-.637 7.232-2.55 3.615 1.488 5.104 4.038 9.783 4.675-3.403.426-4.679.638-7.231.638 2.339-1.913-9.358-2.125-9.146.638 2.34.212 6.381 1.063 8.508.425.212 1.063 4.466.212 5.317 1.063-1.489 1.275-3.403 2.125-5.955 2.975l.425.638-1.489.212c1.064 2.976-5.955 1.488-7.869 2.976l.425.637-.425.638c3.19.638 6.806 1.913 10.421.638 8.72 3.4 23.395 1.275 28.287-2.55 3.616.212 4.254-1.064 7.231-1.064l-.425-.637.425-.638c.213-.85-2.977.213-1.914-1.062l-1.063-.425.425-.638c-5.104.425-6.593-.638-11.059.638 0-1.276 3.19-2.338.638-2.976h3.19l.851-.638c.425.638 1.701 1.276 2.764 1.063l-.212.638c3.403.212 1.701-2.126 3.828-2.55 2.765 0 4.679-.426 6.593-.639-.212-2.125-3.403-.637-7.231-1.062 0-1.275-2.127-1.275-1.914-2.55.638-.426.638-1.276 1.914-1.488 5.104.637 11.059.212 15.738 0-1.701.212-1.488 1.7 0 2.125 3.191-.213 5.956-2.55 9.784-1.063.851 1.276-2.127.213-1.276 1.488l1.063.425-.425.638c2.339.212 3.615-.425 5.317-.638.425-1.488-3.616-2.338-1.276-3.613 1.488 1.063 3.828 1.7 7.231 1.913.213-.638.213-1.488 1.914-1.488.638 0 1.063.425 1.276.638-.638.637-2.127.85-1.914 1.913 1.914.85 2.978.425 5.955.425-.425 1.275 2.552.85 2.552 1.912-4.253.85-8.294 4.251-13.186 2.55l-1.063-.212c-.213-.212-.213-.637-.426-.85l.851-.425c0-.425-.213-.85-.638-1.063-3.616-.212-5.742.213-5.955 1.913 1.276.85 3.615-.637 5.317.425-3.19.213-6.806 2.126-11.698 2.55-1.488-.637-5.955-1.274-7.869-.637 1.489 1.488 4.466 2.338 7.231 3.188-.212-1.487 2.34-.85 3.19-.425.851 1.488-2.126.638-1.276 2.126 1.915.425 2.765-.213 5.956 0l-.426-.638 1.064-.425c1.488-1.488 5.742-.638 8.507-.638.85 0 1.914-.637 2.552-.637 4.041-.213 7.657.425 11.059.425 1.915 0 4.679-1.275 5.956 0 .212.85-2.553.212-1.915 1.488l.426.425-.426.425c3.616 0 6.168 2.338 8.508.637 0 .638.212 1.063.637 1.488 5.318 0 4.892-2.975 7.232-4.676 1.063.425 3.19.213 4.041.638-1.276 0-1.489.425-1.276 1.063 3.615 1.912 9.996 1.062 13.186-.425 0 .637 2.127.212 1.914 1.062-1.914.425-1.914 2.126-5.955 1.488.425 1.488-1.064 1.913-3.19 1.913l.425.638-1.063.212v.638l1.063.425-.425.637c6.38-.85 11.697 2.126 13.186 4.039-2.978 0-4.466-.85-5.955-1.913-4.679-.213-8.507.637-11.06-.425-.638.85-3.19.637-3.19 1.912 1.489.213 3.616.213 3.828 1.063-3.615.85-7.656 1.488-11.059 2.55-1.489.213-1.489-.637-3.19-.424-1.276 1.7 2.552 2.337 3.828 1.487 8.082 0 17.865 1.276 25.522-.425.851.638 2.552.638 3.19 1.063 1.914-.213 2.765-1.063 5.955-.638.638 1.063 1.276 2.126 2.552 2.976 8.082-1.063 21.481-4.038 29.563-.638.425-1.062-1.914-2.338 0-2.975 12.123 2.338 22.119-1.488 31.477-1.488 1.701-1.7 2.765-1.275 6.593-1.488-.213-1.275-1.489-2.125-1.914-3.188 2.552.638.212-1.488 1.914-1.488 5.955-.212 8.295-3.613 14.462-4.038 4.467-.212 9.146 2.126 15.101 1.488 2.977-.425 5.104-1.275 8.507-.425l.425-.638 1.064.213c.85-.425.638-1.276.638-2.126-.851-.425-1.914-.637-2.552-1.062 1.063-.638.85-1.913 1.914-2.55l-.426-.426c1.702.213 3.829-.638 2.978-1.7l1.276.212c0-.85.851-2.55 4.041-1.487.851-.638.851-1.488 1.914-1.913 3.616-.425 5.53 1.487 8.507.425.213.425.851.637.638 1.488 5.743-1.7 8.508.85 13.825 1.487.212-1.487 2.765-2.338-.638-2.975 3.19.212 3.615-1.063 6.593-1.063.212 1.063-1.489 1.063-1.276 2.125 2.765.425 6.593 2.126 9.783 1.063-.638 0-1.702-1.7-.638-1.488 5.104-.212 6.593 1.913 11.059.425-.638 0-.85-.637 0-.637l1.064-.213c.213.425.425.638.85.85.638 0 1.702.213 2.553.213l-.426.638c5.53.212 15.526-.213 19.567-1.913 1.063 0 .425.85 1.914.637 1.702 0 .851-1.487 2.552-1.487 1.064 1.275 3.616 1.7 3.191 3.613-2.978-.425-4.254.425-5.956 1.487 3.403 1.063 10.847 1.488 14.463-.425 1.914.425 3.19 1.488 5.955.638.425-1.275-2.34-.638-2.552-1.488 6.167-2.763 13.611-2.338 18.928-4.676 7.657-.212 13.399 2.126 21.056 2.976 0 .638 1.701.213 1.276 1.063-2.765 1.7-6.381 3.825-12.548 2.55-1.489.638-6.593 2.126-7.87.638 1.915-1.063.638-2.126 0-3.613l-1.063.212-.425-.637c-1.915-.213-2.127-1.276-4.679-1.063-.426 1.7-5.955 3.613-3.191 4.676-4.041-.638-3.828 1.275-6.593 1.487-7.018-.212-10.634 1.913-17.652.638-.213 1.275-2.34 1.488-3.828 2.126 1.063 1.275.212 3.613 3.19 3.613.212-2.338 2.765-3.188 6.593-3.614 3.828 1.276 5.317.213 9.783 1.488 3.828-1.063 6.381-1.063 9.146-2.975 3.828 1.062 7.231 3.613 12.548 1.913l.425-.638c.213.212.213.425.425.638 3.191 1.275 7.231.85 10.847.85l-10.209-1.276c1.064-3.188 9.358-.85 11.698.426.851-.426.213-1.7 1.914-1.913 6.381 2.975 17.865 1.913 26.16.637v3.188c3.828.638 3.828-.425 6.593-1.062-.426-.425-2.552 0-2.552-.638.212-.425.851-.638.638-1.488.851.425 3.19.425 4.041 0 1.701-.85-1.064-.637-.638-1.913 4.466-1.7 11.485 1.276 6.593 3.189-1.064-1.063-3.828 0-4.679.425.851 1.7 1.914 2.55 1.914 4.038 2.765-.425 6.38.85 9.145.425-.638-1.275-2.339-2.126-3.828-2.976 1.489-.212 0-1.912 1.914-1.912 7.444 1.275 12.974-1.7 18.291.637-2.765.638-5.53 0-9.146.638 1.489 1.488-2.552 1.487-1.276 4.038 4.041-.212 7.87 1.063 11.06 0 .212-.638-.851-.638-1.276-1.063 5.317 0 10.634.425 15.738-.425 1.702.213 2.978 1.913 4.679 1.063 1.702-.425 1.276-2.125 3.19-2.55 4.041-.426 4.467 1.062 5.955 2.125 15.739-1.063 31.902 1.488 46.365.425V0H-400.63c1.276.425 2.34.638 4.041.425-2.127 1.063-4.253 1.063-6.593.85v10.627c4.466-.637 8.933 1.913 13.186-.425.638.638 1.489 1.063 1.915 1.913-3.829-.213-5.105 1.063-8.508 1.913-3.19-.213-4.466.638-6.593 1.063v3.825c2.127 0 4.254-.212 5.317.425v1.488c-1.276-.637-3.403.425-5.317.85zm1091.906 65.25l-.425.638h1.063v-2.126c-.638.425-1.276.638-1.701 1.063l1.063.425z" fill="#fff"/><path d="M409.048 79.065c1.702.425 5.105.637 5.955-.425-1.063-.425-2.127-1.063-4.679-.638l.426.638-1.064-.213c.213.425-.425.425-.638.638zm-253.516-5.739l1.063.425-.425.638c2.978.425 5.742-.213 8.507-.638.851 0 1.276.638 1.276-.425l-1.063-.425.425-.638c-3.403-.425-7.869.426-9.783 1.063zm-28.925-11.264c1.489 1.062 4.892 1.275 7.231 1.913.638-.426.638-1.276 1.914-1.488l-.425-.638 1.063-.425c-2.977-1.488-7.869-1.063-9.783.638zm84.009-11.265l-1.063.213c.425-.425.638-.85.425-1.276h.638c2.765.425 3.616.213 5.955-.425.213-1.913-2.127-2.763-4.679-3.188-2.552.638-7.018 2.763-9.145 1.488 0-.425 1.063-.425 1.276-.638-3.828.213-8.72-1.275-11.059.425l.425.638.425.638c1.064 1.487-3.19 0-1.276 0l-.425-.638.425-.638c-5.742-2.125-8.082.638-11.697 1.913-2.34.85-5.317.425-5.317 1.913 1.063 0 2.339-.212 2.552.425-2.34.213-3.19 1.7-5.955.638-.213.425-.851.637-.638 1.488l.425.637-.425.638c4.253.212 14.037.637 16.376-1.488 1.276.425 4.679-.213 3.828 1.488 1.064-1.275 3.616.212 5.318 0 1.063-.213 2.977-2.126 3.828-.425-.213-.85.212-1.276 1.276-1.488 1.701 1.063 4.466 1.488 6.593 2.125.638-.85 2.339-.85 4.679-.637l.425-.638 1.064-.212c-1.064-1.488-5.105-.85-4.254-2.976zm-46.577 4.038c1.276 0 4.254.85 5.317 0l-.425-.637.425-.638c-1.488-.425-5.529 0-5.317 1.275zm35.943-12.965c-.212 1.063.851 1.488 1.914 1.913l.426-.638 1.063.213c.638 0 1.064-.425 1.276-.637l-1.063-.213.425-.638c-1.489-.212-2.339-.425-4.041 0zm-12.335-.425c.212-1.062-.851-1.487-1.277-2.125l-1.063.212-.425-.637c-1.702.212-2.552 1.063-4.679 1.063-.638 1.062-.213 1.062.638 1.912l1.063.213-.425.638c2.552-.213 2.765-1.488 6.168-1.276zm-11.91-1.062v2.125c1.701 0 1.276.638 2.552 0l-.426-.638.426-.637c.212-.638-1.276-.638-2.552-.85zm-9.146 2.125l1.276-.213.639.638c1.063.213 2.126-1.275.638-1.488l-.638.638-.639-.638c-1.276-.212-2.977 1.063-1.276 1.063zm-2.552 1.488c1.702 1.487 5.53.425 6.593-.638h-1.914l-1.063.425-1.064-.425c-1.063 0-3.19-.425-2.552.638zM120.014 63.55l-.425-.638 1.063-.213c1.489 0 0-1.275-.638-1.487l-1.063.212.425-.638c-.425 0-1.276 0-1.276.425l.851.85-.213 1.063c.213.425.638.425 1.276.425zm-3.828 2.55c4.679 1.275 9.57-.213 12.548-1.913-3.19 0-5.317-.425-7.869-.638l.425.638-1.063.213c-.639 1.062-4.041.425-4.041 1.7zm455.563 17.003c0-.637 1.914-.212 1.914-.638-.638-.85-3.403.426-1.914.638zm-79.968-10.202c-9.145-1.063-8.72 3.826-14.462 4.25v2.126c-2.978 0-4.679.425-5.955 0 1.701-2.55-6.806-1.7-9.146-1.487 1.276-1.276-.85-1.063-1.276-2.126-3.19-.212-4.253.638-7.231.425-.213.638.213 1.276-.638 1.488-2.552-1.488-9.996-.425-11.059 1.063 1.914 1.913 5.955 1.7 9.145 1.487.425-1.062-1.276-.637-1.276-1.487a71.333 71.333 0 003.828-.638c-.213 1.063 1.702 1.063 1.914 1.913 2.34 0 2.34-1.063 4.679-1.063.851.85 3.19.85 3.829 1.913-.851 1.488-3.616 1.913-5.318 2.976-2.552-.638-4.04-1.913-5.317-3.188-5.529 2.125-17.014-1.488-20.417.637-2.127-1.487-5.955-1.488-9.783-.637l.425.637c-1.914-.212-4.466-.425-5.955.638l.425-.638c-1.914-.637-6.593-.425-7.231.638 1.276 1.063 4.679 2.338 7.231 1.488l-.425-.638 1.914.638-1.063-.213c-.426.638-1.914.85-2.552 1.488-4.679-.85-11.485-.425-16.377-1.913-1.914.425-4.041.85-4.679 2.125.213.85 3.19.213 2.552 1.488-.425 0-.85 0-.638.425l.426.638-1.064.212c3.19 1.913 14.037-.637 16.376 1.913-3.615 1.275-8.932 2.126-11.697 2.976.425 0 1.276 0 1.276.425-1.914.213-3.19.85-4.679 1.488-.425 1.275 2.765.425 1.914 1.913-2.126-.85-3.403-.213-5.317-.638l-.425.638-.425.637c.212.425-1.915 1.275-1.915.425v-.637l-1.063-.213.425-.637c-1.276 0-7.231.425-9.145 1.062l.426.638c-1.489-.213-2.765.212-3.829.637 0 .425 0 .638.213 1.063 1.489.425 2.977.213 4.466 0l-.425.638c5.317 1.913 12.973 1.062 16.376 1.913l.426-.638c.212.425.425.638.638 1.063.425.425.851.85 1.276 1.062l-1.063.213c-.639 1.488-3.191 1.913-4.68 2.975 7.232-.212 15.313.213 17.015 4.676 3.403.213 7.018-2.55 9.145-.637-3.403 2.338-8.507 3.825-9.783 7.226.851 0 .85.425 1.914.425 5.955-3.188 11.272-6.801 17.014-10.202.213-1.062-1.701-.85-1.914-1.913 1.702-3.613 9.784-1.487 12.548-4.675 6.806-.213 9.571-2.764 11.06-5.74-1.276-.85-3.19-1.487-4.041-2.55 3.403-.425 4.892-1.912 7.231-2.975 2.552.85 4.679-.213 7.231.425-.425-1.063 1.702-.638 1.277-1.913.212-.85-2.553-.212-1.915-1.488 1.064 0 2.127 0 2.552-.425.426-1.275-1.488-1.487-1.276-2.55 2.34.637 4.679-1.275 5.956-2.126 3.828-.425 4.678 1.063 5.954 2.126-.85 0-1.488.212-1.913.425l.425.638-1.064.424c0 .85 2.34.213 3.191.426.425 1.062-2.34 1.062-.639 1.913 2.553.425 1.915-.85 4.041-.638-1.488 1.488-4.891 1.7-5.954 3.613h-.639c0-1.063-2.339-1.063-3.19-.638-.212.85.851 1.276 2.552 1.063l-.425-.638c.851.426 1.701.213 2.339.213v-.638c4.679 1.7 11.911-.85 15.739-1.912-2.765-.638-5.104-1.7-7.231-2.976 2.765-1.488 8.72-1.275 10.421-3.188-1.914-2.55 1.702-5.526-1.276-9.352z" fill="#fff"/><path d="M399.903 102.019l.425-.637-1.063-.213c.212.425-.001.85.638.85zm-7.231-10.202c-.426.213-1.489 1.7 0 1.913l1.063.213.425.637c1.489-1.063 1.277-2.763-1.488-2.763zM141.07 89.692c5.955-1.488 11.059-3.4 18.928-3.613l-.425-.638.425-.638c-2.552-1.275-8.72 0-13.186 0-2.34 0-4.254-1.275-5.317 0 .851-1.062-1.064-.85-1.276-1.487-6.593-.425-16.164-1.488-21.694.425-15.525-2.976-26.16 2.125-41.898 2.975-.85 1.063-.213 1.913 1.276 2.55-2.34-.212-3.615.426-5.317.638-.638 1.7 3.616.85 3.19 2.55-1.488-.212-2.552 0-3.19.426l.425.638-.425.637c4.466 1.063 10.209 1.7 15.739 2.126-2.34.85-1.915 2.125-1.277 4.038 6.806 2.975 16.802-.425 22.97-2.126 2.552.85 6.593.85 9.783 1.488 9.146-1.488 13.187-5.738 21.056-7.864l-.426-.637 1.064-.425c.213-.85-.425-.85-.425-1.063zm-78.693 4.676c1.702 1.062 6.806.85 8.508 0l-.426-.638.426-.638c-2.553-.85-7.87-.637-8.508 1.276zm256.069 34.431l-6.806.638c2.127 0 4.466 0 6.806-.638zM244.22 107.12c-1.276 0-2.552.425-3.828.425l3.828-.425zm114.848-7.014c-.851 0-1.702 0-2.552.213l2.552-.213zM38.983 95.43c-.639 0-1.277.213-1.915.425l1.915-.425zm6.592-3.188l-6.593.425c2.34 0 4.467 0 6.593-.425zm317.534-1.488l-5.955 1.7c2.552 0 3.828-1.062 5.955-1.7zm195.879-9.989l1.914-.212c-.638 0-1.276.212-1.914.212zm84.435 5.101c-1.277-.425-2.552-.425-4.041-.425l4.041.425zm-3.829-.425l-7.869-1.063c2.127 1.063 5.105.85 7.869 1.063zm-394.098.425l-1.914.213c.638-.213 1.276-.213 1.914-.213zm281.378-4.038c-4.892-.213-9.571-.425-14.463-.425l14.463.425zm-404.52-5.314c1.063.213 2.126-.425 3.19-.637l-3.19.637zm24.884-1.7c-.851 0-1.702.213-2.553.213l2.553-.213zm-40.623-3.188l-3.19-1.063c.851.638 2.127.85 3.19 1.063zm-92.516-2.763l2.552-.213c-1.063-.212-1.701 0-2.552.213zm394.736 8.714l1.915 1.063c-.638-.425-1.064-.85-1.915-1.063zM279.738 80.34l-2.765.425c.851-.212 1.914-.212 2.765-.425zm-6.593-2.125l6.593.637c-2.127-.425-4.254-1.062-6.593-.637zm-20.63-2.975l2.339-.426c-1.063-.212-1.489.213-2.339.425zm-25.948-10.628l-3.828-.212c1.276.212 2.552.637 3.828.212zm-24.883 7.226l3.828-.425c-1.276-.212-2.552 0-3.828.425zM149.79 77.79l9.145-1.063c-2.978.212-7.019-.638-9.145 1.063zm15.1-4.889h2.552c-.638 0-1.702-.212-2.552 0zM138.517 61.85h-3.19c1.276.212 2.127 0 3.19 0zm0 0h4.041c-1.276-.426-2.765-.213-4.041 0zm22.545-3.189c-.638-.425-1.064-.85-1.489-1.063l1.489 1.063zm50.618-2.551c-.213-.212-.426-.425-.851-.637l.851.638zm5.742-1.487l-3.828-1.063c1.063.638 2.127 1.063 3.828 1.063zm-45.939-.638l-2.552.425c.85-.212 1.701-.212 2.552-.425zm34.667-12.327c-1.063.212-1.488.425-2.552.637l2.552-.637zm-3.828 1.488l.213 1.275c.212-.425.212-.85-.213-1.275zm-20.418-1.063h-4.041c1.489 0 2.978.212 4.041 0zm-13.611-1.913c0 .425.212 1.063.425 1.913l-.425-1.913zm-.426 2.125c-.213.425-.212.85-.212 1.488l.212-1.488zm-46.79 12.328l-1.701 1.063c.851-.213 1.276-.638 1.701-1.063zM106.615 62.7l12.336-.638c-4.254.212-8.295.425-12.336.637zm14.037-2.339c-.425.213-.851.638-1.702 1.276l4.892-1.276c-.851-.212-2.127-.212-3.19 0zm-.85 2.763c.425.425.85.638 1.276 1.063l-1.276-1.063zm259.045 35.282l-11.91.85c4.041 0 8.082-.212 11.91-.85z" fill="#fff"/><path d="M393.097 95.218l.638-1.488c-.638.638-.851 1.063-.638 1.488zm0-7.652l4.679-.425c-1.489-.212-3.403 0-4.679.425zM73.224 93.518c-.85.212-1.701.212-2.552.425l2.552-.425zm86.561-8.077c1.064-.213 2.127-.213 2.978-.638l-2.978.638zm-19.141 5.314c.851.212 1.702 0 2.552.212l-2.552-.212z" fill="#fff"/></svg>